%TF.GenerationSoftware,KiCad,Pcbnew,(6.0.9)*%
%TF.CreationDate,2023-06-16T09:03:50+03:00*%
%TF.ProjectId,pcb-design,7063622d-6465-4736-9967-6e2e6b696361,rev?*%
%TF.SameCoordinates,Original*%
%TF.FileFunction,Legend,Top*%
%TF.FilePolarity,Positive*%
%FSLAX46Y46*%
G04 Gerber Fmt 4.6, Leading zero omitted, Abs format (unit mm)*
G04 Created by KiCad (PCBNEW (6.0.9)) date 2023-06-16 09:03:50*
%MOMM*%
%LPD*%
G01*
G04 APERTURE LIST*
%ADD10C,0.150000*%
%ADD11C,0.120000*%
%ADD12C,0.200000*%
G04 APERTURE END LIST*
D10*
X68976190Y-83452380D02*
X69309523Y-84452380D01*
X69642857Y-83452380D01*
X69976190Y-84452380D02*
X69976190Y-83785714D01*
X69976190Y-83452380D02*
X69928571Y-83500000D01*
X69976190Y-83547619D01*
X70023809Y-83500000D01*
X69976190Y-83452380D01*
X69976190Y-83547619D01*
X70452380Y-83785714D02*
X70452380Y-84452380D01*
X70452380Y-83880952D02*
X70500000Y-83833333D01*
X70595238Y-83785714D01*
X70738095Y-83785714D01*
X70833333Y-83833333D01*
X70880952Y-83928571D01*
X70880952Y-84452380D01*
X162476190Y-57452380D02*
X162809523Y-58452380D01*
X163142857Y-57452380D01*
X163619047Y-58452380D02*
X163523809Y-58404761D01*
X163476190Y-58357142D01*
X163428571Y-58261904D01*
X163428571Y-57976190D01*
X163476190Y-57880952D01*
X163523809Y-57833333D01*
X163619047Y-57785714D01*
X163761904Y-57785714D01*
X163857142Y-57833333D01*
X163904761Y-57880952D01*
X163952380Y-57976190D01*
X163952380Y-58261904D01*
X163904761Y-58357142D01*
X163857142Y-58404761D01*
X163761904Y-58452380D01*
X163619047Y-58452380D01*
X164809523Y-57785714D02*
X164809523Y-58452380D01*
X164380952Y-57785714D02*
X164380952Y-58309523D01*
X164428571Y-58404761D01*
X164523809Y-58452380D01*
X164666666Y-58452380D01*
X164761904Y-58404761D01*
X164809523Y-58357142D01*
X165142857Y-57785714D02*
X165523809Y-57785714D01*
X165285714Y-57452380D02*
X165285714Y-58309523D01*
X165333333Y-58404761D01*
X165428571Y-58452380D01*
X165523809Y-58452380D01*
%TO.C,R13*%
X99352142Y-102682380D02*
X99018809Y-102206190D01*
X98780714Y-102682380D02*
X98780714Y-101682380D01*
X99161666Y-101682380D01*
X99256904Y-101730000D01*
X99304523Y-101777619D01*
X99352142Y-101872857D01*
X99352142Y-102015714D01*
X99304523Y-102110952D01*
X99256904Y-102158571D01*
X99161666Y-102206190D01*
X98780714Y-102206190D01*
X100304523Y-102682380D02*
X99733095Y-102682380D01*
X100018809Y-102682380D02*
X100018809Y-101682380D01*
X99923571Y-101825238D01*
X99828333Y-101920476D01*
X99733095Y-101968095D01*
X100637857Y-101682380D02*
X101256904Y-101682380D01*
X100923571Y-102063333D01*
X101066428Y-102063333D01*
X101161666Y-102110952D01*
X101209285Y-102158571D01*
X101256904Y-102253809D01*
X101256904Y-102491904D01*
X101209285Y-102587142D01*
X101161666Y-102634761D01*
X101066428Y-102682380D01*
X100780714Y-102682380D01*
X100685476Y-102634761D01*
X100637857Y-102587142D01*
%TO.C,Daux1*%
X99752380Y-83847619D02*
X98752380Y-83847619D01*
X98752380Y-83609523D01*
X98800000Y-83466666D01*
X98895238Y-83371428D01*
X98990476Y-83323809D01*
X99180952Y-83276190D01*
X99323809Y-83276190D01*
X99514285Y-83323809D01*
X99609523Y-83371428D01*
X99704761Y-83466666D01*
X99752380Y-83609523D01*
X99752380Y-83847619D01*
X99752380Y-82419047D02*
X99228571Y-82419047D01*
X99133333Y-82466666D01*
X99085714Y-82561904D01*
X99085714Y-82752380D01*
X99133333Y-82847619D01*
X99704761Y-82419047D02*
X99752380Y-82514285D01*
X99752380Y-82752380D01*
X99704761Y-82847619D01*
X99609523Y-82895238D01*
X99514285Y-82895238D01*
X99419047Y-82847619D01*
X99371428Y-82752380D01*
X99371428Y-82514285D01*
X99323809Y-82419047D01*
X99085714Y-81514285D02*
X99752380Y-81514285D01*
X99085714Y-81942857D02*
X99609523Y-81942857D01*
X99704761Y-81895238D01*
X99752380Y-81800000D01*
X99752380Y-81657142D01*
X99704761Y-81561904D01*
X99657142Y-81514285D01*
X99752380Y-81133333D02*
X99085714Y-80609523D01*
X99085714Y-81133333D02*
X99752380Y-80609523D01*
X99752380Y-79704761D02*
X99752380Y-80276190D01*
X99752380Y-79990476D02*
X98752380Y-79990476D01*
X98895238Y-80085714D01*
X98990476Y-80180952D01*
X99038095Y-80276190D01*
%TO.C,Rcs1*%
X88082380Y-96000000D02*
X87606190Y-96333333D01*
X88082380Y-96571428D02*
X87082380Y-96571428D01*
X87082380Y-96190476D01*
X87130000Y-96095238D01*
X87177619Y-96047619D01*
X87272857Y-96000000D01*
X87415714Y-96000000D01*
X87510952Y-96047619D01*
X87558571Y-96095238D01*
X87606190Y-96190476D01*
X87606190Y-96571428D01*
X88034761Y-95142857D02*
X88082380Y-95238095D01*
X88082380Y-95428571D01*
X88034761Y-95523809D01*
X87987142Y-95571428D01*
X87891904Y-95619047D01*
X87606190Y-95619047D01*
X87510952Y-95571428D01*
X87463333Y-95523809D01*
X87415714Y-95428571D01*
X87415714Y-95238095D01*
X87463333Y-95142857D01*
X88034761Y-94761904D02*
X88082380Y-94666666D01*
X88082380Y-94476190D01*
X88034761Y-94380952D01*
X87939523Y-94333333D01*
X87891904Y-94333333D01*
X87796666Y-94380952D01*
X87749047Y-94476190D01*
X87749047Y-94619047D01*
X87701428Y-94714285D01*
X87606190Y-94761904D01*
X87558571Y-94761904D01*
X87463333Y-94714285D01*
X87415714Y-94619047D01*
X87415714Y-94476190D01*
X87463333Y-94380952D01*
X88082380Y-93380952D02*
X88082380Y-93952380D01*
X88082380Y-93666666D02*
X87082380Y-93666666D01*
X87225238Y-93761904D01*
X87320476Y-93857142D01*
X87368095Y-93952380D01*
%TO.C,Rt1*%
X105082380Y-105252380D02*
X104606190Y-105585714D01*
X105082380Y-105823809D02*
X104082380Y-105823809D01*
X104082380Y-105442857D01*
X104130000Y-105347619D01*
X104177619Y-105300000D01*
X104272857Y-105252380D01*
X104415714Y-105252380D01*
X104510952Y-105300000D01*
X104558571Y-105347619D01*
X104606190Y-105442857D01*
X104606190Y-105823809D01*
X104415714Y-104966666D02*
X104415714Y-104585714D01*
X104082380Y-104823809D02*
X104939523Y-104823809D01*
X105034761Y-104776190D01*
X105082380Y-104680952D01*
X105082380Y-104585714D01*
X105082380Y-103728571D02*
X105082380Y-104300000D01*
X105082380Y-104014285D02*
X104082380Y-104014285D01*
X104225238Y-104109523D01*
X104320476Y-104204761D01*
X104368095Y-104300000D01*
%TO.C,Dsnub1*%
X102652380Y-76500000D02*
X101652380Y-76500000D01*
X101652380Y-76261904D01*
X101700000Y-76119047D01*
X101795238Y-76023809D01*
X101890476Y-75976190D01*
X102080952Y-75928571D01*
X102223809Y-75928571D01*
X102414285Y-75976190D01*
X102509523Y-76023809D01*
X102604761Y-76119047D01*
X102652380Y-76261904D01*
X102652380Y-76500000D01*
X102604761Y-75547619D02*
X102652380Y-75452380D01*
X102652380Y-75261904D01*
X102604761Y-75166666D01*
X102509523Y-75119047D01*
X102461904Y-75119047D01*
X102366666Y-75166666D01*
X102319047Y-75261904D01*
X102319047Y-75404761D01*
X102271428Y-75500000D01*
X102176190Y-75547619D01*
X102128571Y-75547619D01*
X102033333Y-75500000D01*
X101985714Y-75404761D01*
X101985714Y-75261904D01*
X102033333Y-75166666D01*
X101985714Y-74690476D02*
X102652380Y-74690476D01*
X102080952Y-74690476D02*
X102033333Y-74642857D01*
X101985714Y-74547619D01*
X101985714Y-74404761D01*
X102033333Y-74309523D01*
X102128571Y-74261904D01*
X102652380Y-74261904D01*
X101985714Y-73357142D02*
X102652380Y-73357142D01*
X101985714Y-73785714D02*
X102509523Y-73785714D01*
X102604761Y-73738095D01*
X102652380Y-73642857D01*
X102652380Y-73500000D01*
X102604761Y-73404761D01*
X102557142Y-73357142D01*
X102652380Y-72880952D02*
X101652380Y-72880952D01*
X102033333Y-72880952D02*
X101985714Y-72785714D01*
X101985714Y-72595238D01*
X102033333Y-72500000D01*
X102080952Y-72452380D01*
X102176190Y-72404761D01*
X102461904Y-72404761D01*
X102557142Y-72452380D01*
X102604761Y-72500000D01*
X102652380Y-72595238D01*
X102652380Y-72785714D01*
X102604761Y-72880952D01*
X102652380Y-71452380D02*
X102652380Y-72023809D01*
X102652380Y-71738095D02*
X101652380Y-71738095D01*
X101795238Y-71833333D01*
X101890476Y-71928571D01*
X101938095Y-72023809D01*
%TO.C,R21*%
X138457142Y-109482380D02*
X138123809Y-109006190D01*
X137885714Y-109482380D02*
X137885714Y-108482380D01*
X138266666Y-108482380D01*
X138361904Y-108530000D01*
X138409523Y-108577619D01*
X138457142Y-108672857D01*
X138457142Y-108815714D01*
X138409523Y-108910952D01*
X138361904Y-108958571D01*
X138266666Y-109006190D01*
X137885714Y-109006190D01*
X138838095Y-108577619D02*
X138885714Y-108530000D01*
X138980952Y-108482380D01*
X139219047Y-108482380D01*
X139314285Y-108530000D01*
X139361904Y-108577619D01*
X139409523Y-108672857D01*
X139409523Y-108768095D01*
X139361904Y-108910952D01*
X138790476Y-109482380D01*
X139409523Y-109482380D01*
X140361904Y-109482380D02*
X139790476Y-109482380D01*
X140076190Y-109482380D02*
X140076190Y-108482380D01*
X139980952Y-108625238D01*
X139885714Y-108720476D01*
X139790476Y-108768095D01*
%TO.C,Cref1*%
X101209523Y-100237142D02*
X101161904Y-100284761D01*
X101019047Y-100332380D01*
X100923809Y-100332380D01*
X100780952Y-100284761D01*
X100685714Y-100189523D01*
X100638095Y-100094285D01*
X100590476Y-99903809D01*
X100590476Y-99760952D01*
X100638095Y-99570476D01*
X100685714Y-99475238D01*
X100780952Y-99380000D01*
X100923809Y-99332380D01*
X101019047Y-99332380D01*
X101161904Y-99380000D01*
X101209523Y-99427619D01*
X101638095Y-100332380D02*
X101638095Y-99665714D01*
X101638095Y-99856190D02*
X101685714Y-99760952D01*
X101733333Y-99713333D01*
X101828571Y-99665714D01*
X101923809Y-99665714D01*
X102638095Y-100284761D02*
X102542857Y-100332380D01*
X102352380Y-100332380D01*
X102257142Y-100284761D01*
X102209523Y-100189523D01*
X102209523Y-99808571D01*
X102257142Y-99713333D01*
X102352380Y-99665714D01*
X102542857Y-99665714D01*
X102638095Y-99713333D01*
X102685714Y-99808571D01*
X102685714Y-99903809D01*
X102209523Y-99999047D01*
X102971428Y-99665714D02*
X103352380Y-99665714D01*
X103114285Y-100332380D02*
X103114285Y-99475238D01*
X103161904Y-99380000D01*
X103257142Y-99332380D01*
X103352380Y-99332380D01*
X104209523Y-100332380D02*
X103638095Y-100332380D01*
X103923809Y-100332380D02*
X103923809Y-99332380D01*
X103828571Y-99475238D01*
X103733333Y-99570476D01*
X103638095Y-99618095D01*
%TO.C,Cvcc1*%
X71957142Y-97336979D02*
X72004761Y-97384598D01*
X72052380Y-97527456D01*
X72052380Y-97622694D01*
X72004761Y-97765551D01*
X71909523Y-97860789D01*
X71814285Y-97908408D01*
X71623809Y-97956027D01*
X71480952Y-97956027D01*
X71290476Y-97908408D01*
X71195238Y-97860789D01*
X71100000Y-97765551D01*
X71052380Y-97622694D01*
X71052380Y-97527456D01*
X71100000Y-97384598D01*
X71147619Y-97336979D01*
X71385714Y-97003646D02*
X72052380Y-96765551D01*
X71385714Y-96527456D01*
X72004761Y-95717932D02*
X72052380Y-95813170D01*
X72052380Y-96003646D01*
X72004761Y-96098884D01*
X71957142Y-96146503D01*
X71861904Y-96194122D01*
X71576190Y-96194122D01*
X71480952Y-96146503D01*
X71433333Y-96098884D01*
X71385714Y-96003646D01*
X71385714Y-95813170D01*
X71433333Y-95717932D01*
X72004761Y-94860789D02*
X72052380Y-94956027D01*
X72052380Y-95146503D01*
X72004761Y-95241741D01*
X71957142Y-95289360D01*
X71861904Y-95336979D01*
X71576190Y-95336979D01*
X71480952Y-95289360D01*
X71433333Y-95241741D01*
X71385714Y-95146503D01*
X71385714Y-94956027D01*
X71433333Y-94860789D01*
X72052380Y-93908408D02*
X72052380Y-94479837D01*
X72052380Y-94194122D02*
X71052380Y-94194122D01*
X71195238Y-94289360D01*
X71290476Y-94384598D01*
X71338095Y-94479837D01*
%TO.C,Rled1*%
X125982380Y-110509523D02*
X125506190Y-110842857D01*
X125982380Y-111080952D02*
X124982380Y-111080952D01*
X124982380Y-110700000D01*
X125030000Y-110604761D01*
X125077619Y-110557142D01*
X125172857Y-110509523D01*
X125315714Y-110509523D01*
X125410952Y-110557142D01*
X125458571Y-110604761D01*
X125506190Y-110700000D01*
X125506190Y-111080952D01*
X125982380Y-109938095D02*
X125934761Y-110033333D01*
X125839523Y-110080952D01*
X124982380Y-110080952D01*
X125934761Y-109176190D02*
X125982380Y-109271428D01*
X125982380Y-109461904D01*
X125934761Y-109557142D01*
X125839523Y-109604761D01*
X125458571Y-109604761D01*
X125363333Y-109557142D01*
X125315714Y-109461904D01*
X125315714Y-109271428D01*
X125363333Y-109176190D01*
X125458571Y-109128571D01*
X125553809Y-109128571D01*
X125649047Y-109604761D01*
X125982380Y-108271428D02*
X124982380Y-108271428D01*
X125934761Y-108271428D02*
X125982380Y-108366666D01*
X125982380Y-108557142D01*
X125934761Y-108652380D01*
X125887142Y-108700000D01*
X125791904Y-108747619D01*
X125506190Y-108747619D01*
X125410952Y-108700000D01*
X125363333Y-108652380D01*
X125315714Y-108557142D01*
X125315714Y-108366666D01*
X125363333Y-108271428D01*
X125982380Y-107271428D02*
X125982380Y-107842857D01*
X125982380Y-107557142D02*
X124982380Y-107557142D01*
X125125238Y-107652380D01*
X125220476Y-107747619D01*
X125268095Y-107842857D01*
%TO.C,Rsnub1*%
X83466428Y-55632380D02*
X83133095Y-55156190D01*
X82895000Y-55632380D02*
X82895000Y-54632380D01*
X83275952Y-54632380D01*
X83371190Y-54680000D01*
X83418809Y-54727619D01*
X83466428Y-54822857D01*
X83466428Y-54965714D01*
X83418809Y-55060952D01*
X83371190Y-55108571D01*
X83275952Y-55156190D01*
X82895000Y-55156190D01*
X83847380Y-55584761D02*
X83942619Y-55632380D01*
X84133095Y-55632380D01*
X84228333Y-55584761D01*
X84275952Y-55489523D01*
X84275952Y-55441904D01*
X84228333Y-55346666D01*
X84133095Y-55299047D01*
X83990238Y-55299047D01*
X83895000Y-55251428D01*
X83847380Y-55156190D01*
X83847380Y-55108571D01*
X83895000Y-55013333D01*
X83990238Y-54965714D01*
X84133095Y-54965714D01*
X84228333Y-55013333D01*
X84704523Y-54965714D02*
X84704523Y-55632380D01*
X84704523Y-55060952D02*
X84752142Y-55013333D01*
X84847380Y-54965714D01*
X84990238Y-54965714D01*
X85085476Y-55013333D01*
X85133095Y-55108571D01*
X85133095Y-55632380D01*
X86037857Y-54965714D02*
X86037857Y-55632380D01*
X85609285Y-54965714D02*
X85609285Y-55489523D01*
X85656904Y-55584761D01*
X85752142Y-55632380D01*
X85895000Y-55632380D01*
X85990238Y-55584761D01*
X86037857Y-55537142D01*
X86514047Y-55632380D02*
X86514047Y-54632380D01*
X86514047Y-55013333D02*
X86609285Y-54965714D01*
X86799761Y-54965714D01*
X86895000Y-55013333D01*
X86942619Y-55060952D01*
X86990238Y-55156190D01*
X86990238Y-55441904D01*
X86942619Y-55537142D01*
X86895000Y-55584761D01*
X86799761Y-55632380D01*
X86609285Y-55632380D01*
X86514047Y-55584761D01*
X87942619Y-55632380D02*
X87371190Y-55632380D01*
X87656904Y-55632380D02*
X87656904Y-54632380D01*
X87561666Y-54775238D01*
X87466428Y-54870476D01*
X87371190Y-54918095D01*
%TO.C,Rstartup1*%
X82472380Y-86209523D02*
X81996190Y-86542857D01*
X82472380Y-86780952D02*
X81472380Y-86780952D01*
X81472380Y-86400000D01*
X81520000Y-86304761D01*
X81567619Y-86257142D01*
X81662857Y-86209523D01*
X81805714Y-86209523D01*
X81900952Y-86257142D01*
X81948571Y-86304761D01*
X81996190Y-86400000D01*
X81996190Y-86780952D01*
X82424761Y-85828571D02*
X82472380Y-85733333D01*
X82472380Y-85542857D01*
X82424761Y-85447619D01*
X82329523Y-85400000D01*
X82281904Y-85400000D01*
X82186666Y-85447619D01*
X82139047Y-85542857D01*
X82139047Y-85685714D01*
X82091428Y-85780952D01*
X81996190Y-85828571D01*
X81948571Y-85828571D01*
X81853333Y-85780952D01*
X81805714Y-85685714D01*
X81805714Y-85542857D01*
X81853333Y-85447619D01*
X81805714Y-85114285D02*
X81805714Y-84733333D01*
X81472380Y-84971428D02*
X82329523Y-84971428D01*
X82424761Y-84923809D01*
X82472380Y-84828571D01*
X82472380Y-84733333D01*
X82472380Y-83971428D02*
X81948571Y-83971428D01*
X81853333Y-84019047D01*
X81805714Y-84114285D01*
X81805714Y-84304761D01*
X81853333Y-84400000D01*
X82424761Y-83971428D02*
X82472380Y-84066666D01*
X82472380Y-84304761D01*
X82424761Y-84400000D01*
X82329523Y-84447619D01*
X82234285Y-84447619D01*
X82139047Y-84400000D01*
X82091428Y-84304761D01*
X82091428Y-84066666D01*
X82043809Y-83971428D01*
X82472380Y-83495238D02*
X81805714Y-83495238D01*
X81996190Y-83495238D02*
X81900952Y-83447619D01*
X81853333Y-83400000D01*
X81805714Y-83304761D01*
X81805714Y-83209523D01*
X81805714Y-83019047D02*
X81805714Y-82638095D01*
X81472380Y-82876190D02*
X82329523Y-82876190D01*
X82424761Y-82828571D01*
X82472380Y-82733333D01*
X82472380Y-82638095D01*
X81805714Y-81876190D02*
X82472380Y-81876190D01*
X81805714Y-82304761D02*
X82329523Y-82304761D01*
X82424761Y-82257142D01*
X82472380Y-82161904D01*
X82472380Y-82019047D01*
X82424761Y-81923809D01*
X82377142Y-81876190D01*
X81805714Y-81400000D02*
X82805714Y-81400000D01*
X81853333Y-81400000D02*
X81805714Y-81304761D01*
X81805714Y-81114285D01*
X81853333Y-81019047D01*
X81900952Y-80971428D01*
X81996190Y-80923809D01*
X82281904Y-80923809D01*
X82377142Y-80971428D01*
X82424761Y-81019047D01*
X82472380Y-81114285D01*
X82472380Y-81304761D01*
X82424761Y-81400000D01*
X82472380Y-79971428D02*
X82472380Y-80542857D01*
X82472380Y-80257142D02*
X81472380Y-80257142D01*
X81615238Y-80352380D01*
X81710476Y-80447619D01*
X81758095Y-80542857D01*
%TO.C,C23*%
X130137142Y-103405357D02*
X130184761Y-103452976D01*
X130232380Y-103595833D01*
X130232380Y-103691071D01*
X130184761Y-103833928D01*
X130089523Y-103929166D01*
X129994285Y-103976785D01*
X129803809Y-104024404D01*
X129660952Y-104024404D01*
X129470476Y-103976785D01*
X129375238Y-103929166D01*
X129280000Y-103833928D01*
X129232380Y-103691071D01*
X129232380Y-103595833D01*
X129280000Y-103452976D01*
X129327619Y-103405357D01*
X129327619Y-103024404D02*
X129280000Y-102976785D01*
X129232380Y-102881547D01*
X129232380Y-102643452D01*
X129280000Y-102548214D01*
X129327619Y-102500595D01*
X129422857Y-102452976D01*
X129518095Y-102452976D01*
X129660952Y-102500595D01*
X130232380Y-103072023D01*
X130232380Y-102452976D01*
X129232380Y-102119642D02*
X129232380Y-101500595D01*
X129613333Y-101833928D01*
X129613333Y-101691071D01*
X129660952Y-101595833D01*
X129708571Y-101548214D01*
X129803809Y-101500595D01*
X130041904Y-101500595D01*
X130137142Y-101548214D01*
X130184761Y-101595833D01*
X130232380Y-101691071D01*
X130232380Y-101976785D01*
X130184761Y-102072023D01*
X130137142Y-102119642D01*
%TO.C,Rsns1*%
X88771428Y-88852380D02*
X88438095Y-88376190D01*
X88200000Y-88852380D02*
X88200000Y-87852380D01*
X88580952Y-87852380D01*
X88676190Y-87900000D01*
X88723809Y-87947619D01*
X88771428Y-88042857D01*
X88771428Y-88185714D01*
X88723809Y-88280952D01*
X88676190Y-88328571D01*
X88580952Y-88376190D01*
X88200000Y-88376190D01*
X89152380Y-88804761D02*
X89247619Y-88852380D01*
X89438095Y-88852380D01*
X89533333Y-88804761D01*
X89580952Y-88709523D01*
X89580952Y-88661904D01*
X89533333Y-88566666D01*
X89438095Y-88519047D01*
X89295238Y-88519047D01*
X89200000Y-88471428D01*
X89152380Y-88376190D01*
X89152380Y-88328571D01*
X89200000Y-88233333D01*
X89295238Y-88185714D01*
X89438095Y-88185714D01*
X89533333Y-88233333D01*
X90009523Y-88185714D02*
X90009523Y-88852380D01*
X90009523Y-88280952D02*
X90057142Y-88233333D01*
X90152380Y-88185714D01*
X90295238Y-88185714D01*
X90390476Y-88233333D01*
X90438095Y-88328571D01*
X90438095Y-88852380D01*
X90866666Y-88804761D02*
X90961904Y-88852380D01*
X91152380Y-88852380D01*
X91247619Y-88804761D01*
X91295238Y-88709523D01*
X91295238Y-88661904D01*
X91247619Y-88566666D01*
X91152380Y-88519047D01*
X91009523Y-88519047D01*
X90914285Y-88471428D01*
X90866666Y-88376190D01*
X90866666Y-88328571D01*
X90914285Y-88233333D01*
X91009523Y-88185714D01*
X91152380Y-88185714D01*
X91247619Y-88233333D01*
X92247619Y-88852380D02*
X91676190Y-88852380D01*
X91961904Y-88852380D02*
X91961904Y-87852380D01*
X91866666Y-87995238D01*
X91771428Y-88090476D01*
X91676190Y-88138095D01*
%TO.C,C21*%
X140357142Y-105892857D02*
X140404761Y-105940476D01*
X140452380Y-106083333D01*
X140452380Y-106178571D01*
X140404761Y-106321428D01*
X140309523Y-106416666D01*
X140214285Y-106464285D01*
X140023809Y-106511904D01*
X139880952Y-106511904D01*
X139690476Y-106464285D01*
X139595238Y-106416666D01*
X139500000Y-106321428D01*
X139452380Y-106178571D01*
X139452380Y-106083333D01*
X139500000Y-105940476D01*
X139547619Y-105892857D01*
X139547619Y-105511904D02*
X139500000Y-105464285D01*
X139452380Y-105369047D01*
X139452380Y-105130952D01*
X139500000Y-105035714D01*
X139547619Y-104988095D01*
X139642857Y-104940476D01*
X139738095Y-104940476D01*
X139880952Y-104988095D01*
X140452380Y-105559523D01*
X140452380Y-104940476D01*
X140452380Y-103988095D02*
X140452380Y-104559523D01*
X140452380Y-104273809D02*
X139452380Y-104273809D01*
X139595238Y-104369047D01*
X139690476Y-104464285D01*
X139738095Y-104559523D01*
%TO.C,Rbias1*%
X133002380Y-109314285D02*
X132526190Y-109647619D01*
X133002380Y-109885714D02*
X132002380Y-109885714D01*
X132002380Y-109504761D01*
X132050000Y-109409523D01*
X132097619Y-109361904D01*
X132192857Y-109314285D01*
X132335714Y-109314285D01*
X132430952Y-109361904D01*
X132478571Y-109409523D01*
X132526190Y-109504761D01*
X132526190Y-109885714D01*
X133002380Y-108885714D02*
X132002380Y-108885714D01*
X132383333Y-108885714D02*
X132335714Y-108790476D01*
X132335714Y-108600000D01*
X132383333Y-108504761D01*
X132430952Y-108457142D01*
X132526190Y-108409523D01*
X132811904Y-108409523D01*
X132907142Y-108457142D01*
X132954761Y-108504761D01*
X133002380Y-108600000D01*
X133002380Y-108790476D01*
X132954761Y-108885714D01*
X133002380Y-107980952D02*
X132335714Y-107980952D01*
X132002380Y-107980952D02*
X132050000Y-108028571D01*
X132097619Y-107980952D01*
X132050000Y-107933333D01*
X132002380Y-107980952D01*
X132097619Y-107980952D01*
X133002380Y-107076190D02*
X132478571Y-107076190D01*
X132383333Y-107123809D01*
X132335714Y-107219047D01*
X132335714Y-107409523D01*
X132383333Y-107504761D01*
X132954761Y-107076190D02*
X133002380Y-107171428D01*
X133002380Y-107409523D01*
X132954761Y-107504761D01*
X132859523Y-107552380D01*
X132764285Y-107552380D01*
X132669047Y-107504761D01*
X132621428Y-107409523D01*
X132621428Y-107171428D01*
X132573809Y-107076190D01*
X132954761Y-106647619D02*
X133002380Y-106552380D01*
X133002380Y-106361904D01*
X132954761Y-106266666D01*
X132859523Y-106219047D01*
X132811904Y-106219047D01*
X132716666Y-106266666D01*
X132669047Y-106361904D01*
X132669047Y-106504761D01*
X132621428Y-106600000D01*
X132526190Y-106647619D01*
X132478571Y-106647619D01*
X132383333Y-106600000D01*
X132335714Y-106504761D01*
X132335714Y-106361904D01*
X132383333Y-106266666D01*
X133002380Y-105266666D02*
X133002380Y-105838095D01*
X133002380Y-105552380D02*
X132002380Y-105552380D01*
X132145238Y-105647619D01*
X132240476Y-105742857D01*
X132288095Y-105838095D01*
%TO.C,U1*%
X95852380Y-98161904D02*
X96661904Y-98161904D01*
X96757142Y-98114285D01*
X96804761Y-98066666D01*
X96852380Y-97971428D01*
X96852380Y-97780952D01*
X96804761Y-97685714D01*
X96757142Y-97638095D01*
X96661904Y-97590476D01*
X95852380Y-97590476D01*
X96852380Y-96590476D02*
X96852380Y-97161904D01*
X96852380Y-96876190D02*
X95852380Y-96876190D01*
X95995238Y-96971428D01*
X96090476Y-97066666D01*
X96138095Y-97161904D01*
%TO.C,D21*%
X136012714Y-107957380D02*
X136012714Y-106957380D01*
X136250809Y-106957380D01*
X136393666Y-107005000D01*
X136488904Y-107100238D01*
X136536523Y-107195476D01*
X136584142Y-107385952D01*
X136584142Y-107528809D01*
X136536523Y-107719285D01*
X136488904Y-107814523D01*
X136393666Y-107909761D01*
X136250809Y-107957380D01*
X136012714Y-107957380D01*
X136965095Y-107052619D02*
X137012714Y-107005000D01*
X137107952Y-106957380D01*
X137346047Y-106957380D01*
X137441285Y-107005000D01*
X137488904Y-107052619D01*
X137536523Y-107147857D01*
X137536523Y-107243095D01*
X137488904Y-107385952D01*
X136917476Y-107957380D01*
X137536523Y-107957380D01*
X138488904Y-107957380D02*
X137917476Y-107957380D01*
X138203190Y-107957380D02*
X138203190Y-106957380D01*
X138107952Y-107100238D01*
X138012714Y-107195476D01*
X137917476Y-107243095D01*
%TO.C,Q1*%
X152497619Y-111195238D02*
X152450000Y-111290476D01*
X152354761Y-111385714D01*
X152211904Y-111528571D01*
X152164285Y-111623809D01*
X152164285Y-111719047D01*
X152402380Y-111671428D02*
X152354761Y-111766666D01*
X152259523Y-111861904D01*
X152069047Y-111909523D01*
X151735714Y-111909523D01*
X151545238Y-111861904D01*
X151450000Y-111766666D01*
X151402380Y-111671428D01*
X151402380Y-111480952D01*
X151450000Y-111385714D01*
X151545238Y-111290476D01*
X151735714Y-111242857D01*
X152069047Y-111242857D01*
X152259523Y-111290476D01*
X152354761Y-111385714D01*
X152402380Y-111480952D01*
X152402380Y-111671428D01*
X152402380Y-110290476D02*
X152402380Y-110861904D01*
X152402380Y-110576190D02*
X151402380Y-110576190D01*
X151545238Y-110671428D01*
X151640476Y-110766666D01*
X151688095Y-110861904D01*
%TO.C,R11*%
X93682380Y-104442857D02*
X93206190Y-104776190D01*
X93682380Y-105014285D02*
X92682380Y-105014285D01*
X92682380Y-104633333D01*
X92730000Y-104538095D01*
X92777619Y-104490476D01*
X92872857Y-104442857D01*
X93015714Y-104442857D01*
X93110952Y-104490476D01*
X93158571Y-104538095D01*
X93206190Y-104633333D01*
X93206190Y-105014285D01*
X93682380Y-103490476D02*
X93682380Y-104061904D01*
X93682380Y-103776190D02*
X92682380Y-103776190D01*
X92825238Y-103871428D01*
X92920476Y-103966666D01*
X92968095Y-104061904D01*
X93682380Y-102538095D02*
X93682380Y-103109523D01*
X93682380Y-102823809D02*
X92682380Y-102823809D01*
X92825238Y-102919047D01*
X92920476Y-103014285D01*
X92968095Y-103109523D01*
%TO.C,H2*%
X70238095Y-49052380D02*
X70238095Y-48052380D01*
X70238095Y-48528571D02*
X70809523Y-48528571D01*
X70809523Y-49052380D02*
X70809523Y-48052380D01*
X71238095Y-48147619D02*
X71285714Y-48100000D01*
X71380952Y-48052380D01*
X71619047Y-48052380D01*
X71714285Y-48100000D01*
X71761904Y-48147619D01*
X71809523Y-48242857D01*
X71809523Y-48338095D01*
X71761904Y-48480952D01*
X71190476Y-49052380D01*
X71809523Y-49052380D01*
%TO.C,T1*%
X126438095Y-72552380D02*
X127009523Y-72552380D01*
X126723809Y-73552380D02*
X126723809Y-72552380D01*
X127866666Y-73552380D02*
X127295238Y-73552380D01*
X127580952Y-73552380D02*
X127580952Y-72552380D01*
X127485714Y-72695238D01*
X127390476Y-72790476D01*
X127295238Y-72838095D01*
%TO.C,VR1*%
X138952380Y-100909523D02*
X139952380Y-100576190D01*
X138952380Y-100242857D01*
X139952380Y-99338095D02*
X139476190Y-99671428D01*
X139952380Y-99909523D02*
X138952380Y-99909523D01*
X138952380Y-99528571D01*
X139000000Y-99433333D01*
X139047619Y-99385714D01*
X139142857Y-99338095D01*
X139285714Y-99338095D01*
X139380952Y-99385714D01*
X139428571Y-99433333D01*
X139476190Y-99528571D01*
X139476190Y-99909523D01*
X139952380Y-98385714D02*
X139952380Y-98957142D01*
X139952380Y-98671428D02*
X138952380Y-98671428D01*
X139095238Y-98766666D01*
X139190476Y-98861904D01*
X139238095Y-98957142D01*
%TO.C,Rsnub2*%
X82271428Y-77052380D02*
X81938095Y-76576190D01*
X81700000Y-77052380D02*
X81700000Y-76052380D01*
X82080952Y-76052380D01*
X82176190Y-76100000D01*
X82223809Y-76147619D01*
X82271428Y-76242857D01*
X82271428Y-76385714D01*
X82223809Y-76480952D01*
X82176190Y-76528571D01*
X82080952Y-76576190D01*
X81700000Y-76576190D01*
X82652380Y-77004761D02*
X82747619Y-77052380D01*
X82938095Y-77052380D01*
X83033333Y-77004761D01*
X83080952Y-76909523D01*
X83080952Y-76861904D01*
X83033333Y-76766666D01*
X82938095Y-76719047D01*
X82795238Y-76719047D01*
X82700000Y-76671428D01*
X82652380Y-76576190D01*
X82652380Y-76528571D01*
X82700000Y-76433333D01*
X82795238Y-76385714D01*
X82938095Y-76385714D01*
X83033333Y-76433333D01*
X83509523Y-76385714D02*
X83509523Y-77052380D01*
X83509523Y-76480952D02*
X83557142Y-76433333D01*
X83652380Y-76385714D01*
X83795238Y-76385714D01*
X83890476Y-76433333D01*
X83938095Y-76528571D01*
X83938095Y-77052380D01*
X84842857Y-76385714D02*
X84842857Y-77052380D01*
X84414285Y-76385714D02*
X84414285Y-76909523D01*
X84461904Y-77004761D01*
X84557142Y-77052380D01*
X84700000Y-77052380D01*
X84795238Y-77004761D01*
X84842857Y-76957142D01*
X85319047Y-77052380D02*
X85319047Y-76052380D01*
X85319047Y-76433333D02*
X85414285Y-76385714D01*
X85604761Y-76385714D01*
X85700000Y-76433333D01*
X85747619Y-76480952D01*
X85795238Y-76576190D01*
X85795238Y-76861904D01*
X85747619Y-76957142D01*
X85700000Y-77004761D01*
X85604761Y-77052380D01*
X85414285Y-77052380D01*
X85319047Y-77004761D01*
X86176190Y-76147619D02*
X86223809Y-76100000D01*
X86319047Y-76052380D01*
X86557142Y-76052380D01*
X86652380Y-76100000D01*
X86700000Y-76147619D01*
X86747619Y-76242857D01*
X86747619Y-76338095D01*
X86700000Y-76480952D01*
X86128571Y-77052380D01*
X86747619Y-77052380D01*
%TO.C,H4*%
X161338095Y-48952380D02*
X161338095Y-47952380D01*
X161338095Y-48428571D02*
X161909523Y-48428571D01*
X161909523Y-48952380D02*
X161909523Y-47952380D01*
X162814285Y-48285714D02*
X162814285Y-48952380D01*
X162576190Y-47904761D02*
X162338095Y-48619047D01*
X162957142Y-48619047D01*
%TO.C,C12*%
X73877142Y-89242857D02*
X73924761Y-89290476D01*
X73972380Y-89433333D01*
X73972380Y-89528571D01*
X73924761Y-89671428D01*
X73829523Y-89766666D01*
X73734285Y-89814285D01*
X73543809Y-89861904D01*
X73400952Y-89861904D01*
X73210476Y-89814285D01*
X73115238Y-89766666D01*
X73020000Y-89671428D01*
X72972380Y-89528571D01*
X72972380Y-89433333D01*
X73020000Y-89290476D01*
X73067619Y-89242857D01*
X73972380Y-88290476D02*
X73972380Y-88861904D01*
X73972380Y-88576190D02*
X72972380Y-88576190D01*
X73115238Y-88671428D01*
X73210476Y-88766666D01*
X73258095Y-88861904D01*
X73067619Y-87909523D02*
X73020000Y-87861904D01*
X72972380Y-87766666D01*
X72972380Y-87528571D01*
X73020000Y-87433333D01*
X73067619Y-87385714D01*
X73162857Y-87338095D01*
X73258095Y-87338095D01*
X73400952Y-87385714D01*
X73972380Y-87957142D01*
X73972380Y-87338095D01*
%TO.C,C22*%
X133537142Y-100042857D02*
X133584761Y-100090476D01*
X133632380Y-100233333D01*
X133632380Y-100328571D01*
X133584761Y-100471428D01*
X133489523Y-100566666D01*
X133394285Y-100614285D01*
X133203809Y-100661904D01*
X133060952Y-100661904D01*
X132870476Y-100614285D01*
X132775238Y-100566666D01*
X132680000Y-100471428D01*
X132632380Y-100328571D01*
X132632380Y-100233333D01*
X132680000Y-100090476D01*
X132727619Y-100042857D01*
X132727619Y-99661904D02*
X132680000Y-99614285D01*
X132632380Y-99519047D01*
X132632380Y-99280952D01*
X132680000Y-99185714D01*
X132727619Y-99138095D01*
X132822857Y-99090476D01*
X132918095Y-99090476D01*
X133060952Y-99138095D01*
X133632380Y-99709523D01*
X133632380Y-99090476D01*
X132727619Y-98709523D02*
X132680000Y-98661904D01*
X132632380Y-98566666D01*
X132632380Y-98328571D01*
X132680000Y-98233333D01*
X132727619Y-98185714D01*
X132822857Y-98138095D01*
X132918095Y-98138095D01*
X133060952Y-98185714D01*
X133632380Y-98757142D01*
X133632380Y-98138095D01*
%TO.C,Cout1*%
X157442857Y-100157142D02*
X157395238Y-100204761D01*
X157252380Y-100252380D01*
X157157142Y-100252380D01*
X157014285Y-100204761D01*
X156919047Y-100109523D01*
X156871428Y-100014285D01*
X156823809Y-99823809D01*
X156823809Y-99680952D01*
X156871428Y-99490476D01*
X156919047Y-99395238D01*
X157014285Y-99300000D01*
X157157142Y-99252380D01*
X157252380Y-99252380D01*
X157395238Y-99300000D01*
X157442857Y-99347619D01*
X158014285Y-100252380D02*
X157919047Y-100204761D01*
X157871428Y-100157142D01*
X157823809Y-100061904D01*
X157823809Y-99776190D01*
X157871428Y-99680952D01*
X157919047Y-99633333D01*
X158014285Y-99585714D01*
X158157142Y-99585714D01*
X158252380Y-99633333D01*
X158300000Y-99680952D01*
X158347619Y-99776190D01*
X158347619Y-100061904D01*
X158300000Y-100157142D01*
X158252380Y-100204761D01*
X158157142Y-100252380D01*
X158014285Y-100252380D01*
X159204761Y-99585714D02*
X159204761Y-100252380D01*
X158776190Y-99585714D02*
X158776190Y-100109523D01*
X158823809Y-100204761D01*
X158919047Y-100252380D01*
X159061904Y-100252380D01*
X159157142Y-100204761D01*
X159204761Y-100157142D01*
X159538095Y-99585714D02*
X159919047Y-99585714D01*
X159680952Y-99252380D02*
X159680952Y-100109523D01*
X159728571Y-100204761D01*
X159823809Y-100252380D01*
X159919047Y-100252380D01*
X160776190Y-100252380D02*
X160204761Y-100252380D01*
X160490476Y-100252380D02*
X160490476Y-99252380D01*
X160395238Y-99395238D01*
X160300000Y-99490476D01*
X160204761Y-99538095D01*
%TO.C,H3*%
X82138095Y-106252380D02*
X82138095Y-105252380D01*
X82138095Y-105728571D02*
X82709523Y-105728571D01*
X82709523Y-106252380D02*
X82709523Y-105252380D01*
X83090476Y-105252380D02*
X83709523Y-105252380D01*
X83376190Y-105633333D01*
X83519047Y-105633333D01*
X83614285Y-105680952D01*
X83661904Y-105728571D01*
X83709523Y-105823809D01*
X83709523Y-106061904D01*
X83661904Y-106157142D01*
X83614285Y-106204761D01*
X83519047Y-106252380D01*
X83233333Y-106252380D01*
X83138095Y-106204761D01*
X83090476Y-106157142D01*
%TO.C,R22*%
X125382380Y-99242857D02*
X124906190Y-99576190D01*
X125382380Y-99814285D02*
X124382380Y-99814285D01*
X124382380Y-99433333D01*
X124430000Y-99338095D01*
X124477619Y-99290476D01*
X124572857Y-99242857D01*
X124715714Y-99242857D01*
X124810952Y-99290476D01*
X124858571Y-99338095D01*
X124906190Y-99433333D01*
X124906190Y-99814285D01*
X124477619Y-98861904D02*
X124430000Y-98814285D01*
X124382380Y-98719047D01*
X124382380Y-98480952D01*
X124430000Y-98385714D01*
X124477619Y-98338095D01*
X124572857Y-98290476D01*
X124668095Y-98290476D01*
X124810952Y-98338095D01*
X125382380Y-98909523D01*
X125382380Y-98290476D01*
X124477619Y-97909523D02*
X124430000Y-97861904D01*
X124382380Y-97766666D01*
X124382380Y-97528571D01*
X124430000Y-97433333D01*
X124477619Y-97385714D01*
X124572857Y-97338095D01*
X124668095Y-97338095D01*
X124810952Y-97385714D01*
X125382380Y-97957142D01*
X125382380Y-97338095D01*
%TO.C,Raux1*%
X101082380Y-92476190D02*
X100606190Y-92809523D01*
X101082380Y-93047619D02*
X100082380Y-93047619D01*
X100082380Y-92666666D01*
X100130000Y-92571428D01*
X100177619Y-92523809D01*
X100272857Y-92476190D01*
X100415714Y-92476190D01*
X100510952Y-92523809D01*
X100558571Y-92571428D01*
X100606190Y-92666666D01*
X100606190Y-93047619D01*
X101082380Y-91619047D02*
X100558571Y-91619047D01*
X100463333Y-91666666D01*
X100415714Y-91761904D01*
X100415714Y-91952380D01*
X100463333Y-92047619D01*
X101034761Y-91619047D02*
X101082380Y-91714285D01*
X101082380Y-91952380D01*
X101034761Y-92047619D01*
X100939523Y-92095238D01*
X100844285Y-92095238D01*
X100749047Y-92047619D01*
X100701428Y-91952380D01*
X100701428Y-91714285D01*
X100653809Y-91619047D01*
X100415714Y-90714285D02*
X101082380Y-90714285D01*
X100415714Y-91142857D02*
X100939523Y-91142857D01*
X101034761Y-91095238D01*
X101082380Y-91000000D01*
X101082380Y-90857142D01*
X101034761Y-90761904D01*
X100987142Y-90714285D01*
X101082380Y-90333333D02*
X100415714Y-89809523D01*
X100415714Y-90333333D02*
X101082380Y-89809523D01*
X101082380Y-88904761D02*
X101082380Y-89476190D01*
X101082380Y-89190476D02*
X100082380Y-89190476D01*
X100225238Y-89285714D01*
X100320476Y-89380952D01*
X100368095Y-89476190D01*
%TO.C,Qsc1*%
X83912344Y-102743847D02*
X83864725Y-102839085D01*
X83769486Y-102934323D01*
X83626629Y-103077180D01*
X83579010Y-103172418D01*
X83579010Y-103267656D01*
X83817105Y-103220037D02*
X83769486Y-103315276D01*
X83674248Y-103410514D01*
X83483772Y-103458133D01*
X83150439Y-103458133D01*
X82959963Y-103410514D01*
X82864725Y-103315276D01*
X82817105Y-103220037D01*
X82817105Y-103029561D01*
X82864725Y-102934323D01*
X82959963Y-102839085D01*
X83150439Y-102791466D01*
X83483772Y-102791466D01*
X83674248Y-102839085D01*
X83769486Y-102934323D01*
X83817105Y-103029561D01*
X83817105Y-103220037D01*
X83769486Y-102410514D02*
X83817105Y-102315276D01*
X83817105Y-102124799D01*
X83769486Y-102029561D01*
X83674248Y-101981942D01*
X83626629Y-101981942D01*
X83531391Y-102029561D01*
X83483772Y-102124799D01*
X83483772Y-102267656D01*
X83436153Y-102362895D01*
X83340915Y-102410514D01*
X83293296Y-102410514D01*
X83198058Y-102362895D01*
X83150439Y-102267656D01*
X83150439Y-102124799D01*
X83198058Y-102029561D01*
X83769486Y-101124799D02*
X83817105Y-101220037D01*
X83817105Y-101410514D01*
X83769486Y-101505752D01*
X83721867Y-101553371D01*
X83626629Y-101600990D01*
X83340915Y-101600990D01*
X83245677Y-101553371D01*
X83198058Y-101505752D01*
X83150439Y-101410514D01*
X83150439Y-101220037D01*
X83198058Y-101124799D01*
X83817105Y-100172418D02*
X83817105Y-100743847D01*
X83817105Y-100458133D02*
X82817105Y-100458133D01*
X82959963Y-100553371D01*
X83055201Y-100648609D01*
X83102820Y-100743847D01*
%TO.C,Dsec1*%
X163677380Y-76650000D02*
X162677380Y-76650000D01*
X162677380Y-76411904D01*
X162725000Y-76269047D01*
X162820238Y-76173809D01*
X162915476Y-76126190D01*
X163105952Y-76078571D01*
X163248809Y-76078571D01*
X163439285Y-76126190D01*
X163534523Y-76173809D01*
X163629761Y-76269047D01*
X163677380Y-76411904D01*
X163677380Y-76650000D01*
X163629761Y-75697619D02*
X163677380Y-75602380D01*
X163677380Y-75411904D01*
X163629761Y-75316666D01*
X163534523Y-75269047D01*
X163486904Y-75269047D01*
X163391666Y-75316666D01*
X163344047Y-75411904D01*
X163344047Y-75554761D01*
X163296428Y-75650000D01*
X163201190Y-75697619D01*
X163153571Y-75697619D01*
X163058333Y-75650000D01*
X163010714Y-75554761D01*
X163010714Y-75411904D01*
X163058333Y-75316666D01*
X163629761Y-74459523D02*
X163677380Y-74554761D01*
X163677380Y-74745238D01*
X163629761Y-74840476D01*
X163534523Y-74888095D01*
X163153571Y-74888095D01*
X163058333Y-74840476D01*
X163010714Y-74745238D01*
X163010714Y-74554761D01*
X163058333Y-74459523D01*
X163153571Y-74411904D01*
X163248809Y-74411904D01*
X163344047Y-74888095D01*
X163629761Y-73554761D02*
X163677380Y-73650000D01*
X163677380Y-73840476D01*
X163629761Y-73935714D01*
X163582142Y-73983333D01*
X163486904Y-74030952D01*
X163201190Y-74030952D01*
X163105952Y-73983333D01*
X163058333Y-73935714D01*
X163010714Y-73840476D01*
X163010714Y-73650000D01*
X163058333Y-73554761D01*
X163677380Y-72602380D02*
X163677380Y-73173809D01*
X163677380Y-72888095D02*
X162677380Y-72888095D01*
X162820238Y-72983333D01*
X162915476Y-73078571D01*
X162963095Y-73173809D01*
%TO.C,Ct1*%
X79547619Y-103437142D02*
X79500000Y-103484761D01*
X79357142Y-103532380D01*
X79261904Y-103532380D01*
X79119047Y-103484761D01*
X79023809Y-103389523D01*
X78976190Y-103294285D01*
X78928571Y-103103809D01*
X78928571Y-102960952D01*
X78976190Y-102770476D01*
X79023809Y-102675238D01*
X79119047Y-102580000D01*
X79261904Y-102532380D01*
X79357142Y-102532380D01*
X79500000Y-102580000D01*
X79547619Y-102627619D01*
X79833333Y-102865714D02*
X80214285Y-102865714D01*
X79976190Y-102532380D02*
X79976190Y-103389523D01*
X80023809Y-103484761D01*
X80119047Y-103532380D01*
X80214285Y-103532380D01*
X81071428Y-103532380D02*
X80500000Y-103532380D01*
X80785714Y-103532380D02*
X80785714Y-102532380D01*
X80690476Y-102675238D01*
X80595238Y-102770476D01*
X80500000Y-102818095D01*
%TO.C,Rfbt1*%
X148812023Y-94882380D02*
X148478690Y-94406190D01*
X148240595Y-94882380D02*
X148240595Y-93882380D01*
X148621547Y-93882380D01*
X148716785Y-93930000D01*
X148764404Y-93977619D01*
X148812023Y-94072857D01*
X148812023Y-94215714D01*
X148764404Y-94310952D01*
X148716785Y-94358571D01*
X148621547Y-94406190D01*
X148240595Y-94406190D01*
X149097738Y-94215714D02*
X149478690Y-94215714D01*
X149240595Y-94882380D02*
X149240595Y-94025238D01*
X149288214Y-93930000D01*
X149383452Y-93882380D01*
X149478690Y-93882380D01*
X149812023Y-94882380D02*
X149812023Y-93882380D01*
X149812023Y-94263333D02*
X149907261Y-94215714D01*
X150097738Y-94215714D01*
X150192976Y-94263333D01*
X150240595Y-94310952D01*
X150288214Y-94406190D01*
X150288214Y-94691904D01*
X150240595Y-94787142D01*
X150192976Y-94834761D01*
X150097738Y-94882380D01*
X149907261Y-94882380D01*
X149812023Y-94834761D01*
X150573928Y-94215714D02*
X150954880Y-94215714D01*
X150716785Y-93882380D02*
X150716785Y-94739523D01*
X150764404Y-94834761D01*
X150859642Y-94882380D01*
X150954880Y-94882380D01*
X151812023Y-94882380D02*
X151240595Y-94882380D01*
X151526309Y-94882380D02*
X151526309Y-93882380D01*
X151431071Y-94025238D01*
X151335833Y-94120476D01*
X151240595Y-94168095D01*
%TO.C,Dz1*%
X149707142Y-100652380D02*
X149707142Y-99652380D01*
X149945238Y-99652380D01*
X150088095Y-99700000D01*
X150183333Y-99795238D01*
X150230952Y-99890476D01*
X150278571Y-100080952D01*
X150278571Y-100223809D01*
X150230952Y-100414285D01*
X150183333Y-100509523D01*
X150088095Y-100604761D01*
X149945238Y-100652380D01*
X149707142Y-100652380D01*
X150611904Y-99985714D02*
X151135714Y-99985714D01*
X150611904Y-100652380D01*
X151135714Y-100652380D01*
X152040476Y-100652380D02*
X151469047Y-100652380D01*
X151754761Y-100652380D02*
X151754761Y-99652380D01*
X151659523Y-99795238D01*
X151564285Y-99890476D01*
X151469047Y-99938095D01*
%TO.C,R12*%
X99527263Y-106852380D02*
X99193930Y-106376190D01*
X98955835Y-106852380D02*
X98955835Y-105852380D01*
X99336787Y-105852380D01*
X99432025Y-105900000D01*
X99479644Y-105947619D01*
X99527263Y-106042857D01*
X99527263Y-106185714D01*
X99479644Y-106280952D01*
X99432025Y-106328571D01*
X99336787Y-106376190D01*
X98955835Y-106376190D01*
X100479644Y-106852380D02*
X99908216Y-106852380D01*
X100193930Y-106852380D02*
X100193930Y-105852380D01*
X100098692Y-105995238D01*
X100003454Y-106090476D01*
X99908216Y-106138095D01*
X100860597Y-105947619D02*
X100908216Y-105900000D01*
X101003454Y-105852380D01*
X101241549Y-105852380D01*
X101336787Y-105900000D01*
X101384406Y-105947619D01*
X101432025Y-106042857D01*
X101432025Y-106138095D01*
X101384406Y-106280952D01*
X100812978Y-106852380D01*
X101432025Y-106852380D01*
%TO.C,C13*%
X95357142Y-106157142D02*
X95309523Y-106204761D01*
X95166666Y-106252380D01*
X95071428Y-106252380D01*
X94928571Y-106204761D01*
X94833333Y-106109523D01*
X94785714Y-106014285D01*
X94738095Y-105823809D01*
X94738095Y-105680952D01*
X94785714Y-105490476D01*
X94833333Y-105395238D01*
X94928571Y-105300000D01*
X95071428Y-105252380D01*
X95166666Y-105252380D01*
X95309523Y-105300000D01*
X95357142Y-105347619D01*
X96309523Y-106252380D02*
X95738095Y-106252380D01*
X96023809Y-106252380D02*
X96023809Y-105252380D01*
X95928571Y-105395238D01*
X95833333Y-105490476D01*
X95738095Y-105538095D01*
X96642857Y-105252380D02*
X97261904Y-105252380D01*
X96928571Y-105633333D01*
X97071428Y-105633333D01*
X97166666Y-105680952D01*
X97214285Y-105728571D01*
X97261904Y-105823809D01*
X97261904Y-106061904D01*
X97214285Y-106157142D01*
X97166666Y-106204761D01*
X97071428Y-106252380D01*
X96785714Y-106252380D01*
X96690476Y-106204761D01*
X96642857Y-106157142D01*
%TO.C,Rdrv1*%
X95802380Y-91709523D02*
X95326190Y-92042857D01*
X95802380Y-92280952D02*
X94802380Y-92280952D01*
X94802380Y-91900000D01*
X94850000Y-91804761D01*
X94897619Y-91757142D01*
X94992857Y-91709523D01*
X95135714Y-91709523D01*
X95230952Y-91757142D01*
X95278571Y-91804761D01*
X95326190Y-91900000D01*
X95326190Y-92280952D01*
X95802380Y-90852380D02*
X94802380Y-90852380D01*
X95754761Y-90852380D02*
X95802380Y-90947619D01*
X95802380Y-91138095D01*
X95754761Y-91233333D01*
X95707142Y-91280952D01*
X95611904Y-91328571D01*
X95326190Y-91328571D01*
X95230952Y-91280952D01*
X95183333Y-91233333D01*
X95135714Y-91138095D01*
X95135714Y-90947619D01*
X95183333Y-90852380D01*
X95802380Y-90376190D02*
X95135714Y-90376190D01*
X95326190Y-90376190D02*
X95230952Y-90328571D01*
X95183333Y-90280952D01*
X95135714Y-90185714D01*
X95135714Y-90090476D01*
X95135714Y-89852380D02*
X95802380Y-89614285D01*
X95135714Y-89376190D01*
X95802380Y-88471428D02*
X95802380Y-89042857D01*
X95802380Y-88757142D02*
X94802380Y-88757142D01*
X94945238Y-88852380D01*
X95040476Y-88947619D01*
X95088095Y-89042857D01*
%TO.C,O1*%
X118841071Y-106537380D02*
X119031547Y-106537380D01*
X119126785Y-106585000D01*
X119222023Y-106680238D01*
X119269642Y-106870714D01*
X119269642Y-107204047D01*
X119222023Y-107394523D01*
X119126785Y-107489761D01*
X119031547Y-107537380D01*
X118841071Y-107537380D01*
X118745833Y-107489761D01*
X118650595Y-107394523D01*
X118602976Y-107204047D01*
X118602976Y-106870714D01*
X118650595Y-106680238D01*
X118745833Y-106585000D01*
X118841071Y-106537380D01*
X120222023Y-107537380D02*
X119650595Y-107537380D01*
X119936309Y-107537380D02*
X119936309Y-106537380D01*
X119841071Y-106680238D01*
X119745833Y-106775476D01*
X119650595Y-106823095D01*
%TO.C,H1*%
X161238095Y-106252380D02*
X161238095Y-105252380D01*
X161238095Y-105728571D02*
X161809523Y-105728571D01*
X161809523Y-106252380D02*
X161809523Y-105252380D01*
X162809523Y-106252380D02*
X162238095Y-106252380D01*
X162523809Y-106252380D02*
X162523809Y-105252380D01*
X162428571Y-105395238D01*
X162333333Y-105490476D01*
X162238095Y-105538095D01*
%TO.C,Csnub1*%
X105517142Y-70728571D02*
X105564761Y-70776190D01*
X105612380Y-70919047D01*
X105612380Y-71014285D01*
X105564761Y-71157142D01*
X105469523Y-71252380D01*
X105374285Y-71300000D01*
X105183809Y-71347619D01*
X105040952Y-71347619D01*
X104850476Y-71300000D01*
X104755238Y-71252380D01*
X104660000Y-71157142D01*
X104612380Y-71014285D01*
X104612380Y-70919047D01*
X104660000Y-70776190D01*
X104707619Y-70728571D01*
X105564761Y-70347619D02*
X105612380Y-70252380D01*
X105612380Y-70061904D01*
X105564761Y-69966666D01*
X105469523Y-69919047D01*
X105421904Y-69919047D01*
X105326666Y-69966666D01*
X105279047Y-70061904D01*
X105279047Y-70204761D01*
X105231428Y-70300000D01*
X105136190Y-70347619D01*
X105088571Y-70347619D01*
X104993333Y-70300000D01*
X104945714Y-70204761D01*
X104945714Y-70061904D01*
X104993333Y-69966666D01*
X104945714Y-69490476D02*
X105612380Y-69490476D01*
X105040952Y-69490476D02*
X104993333Y-69442857D01*
X104945714Y-69347619D01*
X104945714Y-69204761D01*
X104993333Y-69109523D01*
X105088571Y-69061904D01*
X105612380Y-69061904D01*
X104945714Y-68157142D02*
X105612380Y-68157142D01*
X104945714Y-68585714D02*
X105469523Y-68585714D01*
X105564761Y-68538095D01*
X105612380Y-68442857D01*
X105612380Y-68300000D01*
X105564761Y-68204761D01*
X105517142Y-68157142D01*
X105612380Y-67680952D02*
X104612380Y-67680952D01*
X104993333Y-67680952D02*
X104945714Y-67585714D01*
X104945714Y-67395238D01*
X104993333Y-67300000D01*
X105040952Y-67252380D01*
X105136190Y-67204761D01*
X105421904Y-67204761D01*
X105517142Y-67252380D01*
X105564761Y-67300000D01*
X105612380Y-67395238D01*
X105612380Y-67585714D01*
X105564761Y-67680952D01*
X105612380Y-66252380D02*
X105612380Y-66823809D01*
X105612380Y-66538095D02*
X104612380Y-66538095D01*
X104755238Y-66633333D01*
X104850476Y-66728571D01*
X104898095Y-66823809D01*
%TO.C,Rfbb1*%
X147682380Y-99359642D02*
X147206190Y-99692976D01*
X147682380Y-99931071D02*
X146682380Y-99931071D01*
X146682380Y-99550119D01*
X146730000Y-99454880D01*
X146777619Y-99407261D01*
X146872857Y-99359642D01*
X147015714Y-99359642D01*
X147110952Y-99407261D01*
X147158571Y-99454880D01*
X147206190Y-99550119D01*
X147206190Y-99931071D01*
X147015714Y-99073928D02*
X147015714Y-98692976D01*
X147682380Y-98931071D02*
X146825238Y-98931071D01*
X146730000Y-98883452D01*
X146682380Y-98788214D01*
X146682380Y-98692976D01*
X147682380Y-98359642D02*
X146682380Y-98359642D01*
X147063333Y-98359642D02*
X147015714Y-98264404D01*
X147015714Y-98073928D01*
X147063333Y-97978690D01*
X147110952Y-97931071D01*
X147206190Y-97883452D01*
X147491904Y-97883452D01*
X147587142Y-97931071D01*
X147634761Y-97978690D01*
X147682380Y-98073928D01*
X147682380Y-98264404D01*
X147634761Y-98359642D01*
X147682380Y-97454880D02*
X146682380Y-97454880D01*
X147063333Y-97454880D02*
X147015714Y-97359642D01*
X147015714Y-97169166D01*
X147063333Y-97073928D01*
X147110952Y-97026309D01*
X147206190Y-96978690D01*
X147491904Y-96978690D01*
X147587142Y-97026309D01*
X147634761Y-97073928D01*
X147682380Y-97169166D01*
X147682380Y-97359642D01*
X147634761Y-97454880D01*
X147682380Y-96026309D02*
X147682380Y-96597738D01*
X147682380Y-96312023D02*
X146682380Y-96312023D01*
X146825238Y-96407261D01*
X146920476Y-96502500D01*
X146968095Y-96597738D01*
%TO.C,Rstartup2*%
X78652380Y-92409523D02*
X78176190Y-92742857D01*
X78652380Y-92980952D02*
X77652380Y-92980952D01*
X77652380Y-92600000D01*
X77700000Y-92504761D01*
X77747619Y-92457142D01*
X77842857Y-92409523D01*
X77985714Y-92409523D01*
X78080952Y-92457142D01*
X78128571Y-92504761D01*
X78176190Y-92600000D01*
X78176190Y-92980952D01*
X78604761Y-92028571D02*
X78652380Y-91933333D01*
X78652380Y-91742857D01*
X78604761Y-91647619D01*
X78509523Y-91600000D01*
X78461904Y-91600000D01*
X78366666Y-91647619D01*
X78319047Y-91742857D01*
X78319047Y-91885714D01*
X78271428Y-91980952D01*
X78176190Y-92028571D01*
X78128571Y-92028571D01*
X78033333Y-91980952D01*
X77985714Y-91885714D01*
X77985714Y-91742857D01*
X78033333Y-91647619D01*
X77985714Y-91314285D02*
X77985714Y-90933333D01*
X77652380Y-91171428D02*
X78509523Y-91171428D01*
X78604761Y-91123809D01*
X78652380Y-91028571D01*
X78652380Y-90933333D01*
X78652380Y-90171428D02*
X78128571Y-90171428D01*
X78033333Y-90219047D01*
X77985714Y-90314285D01*
X77985714Y-90504761D01*
X78033333Y-90600000D01*
X78604761Y-90171428D02*
X78652380Y-90266666D01*
X78652380Y-90504761D01*
X78604761Y-90600000D01*
X78509523Y-90647619D01*
X78414285Y-90647619D01*
X78319047Y-90600000D01*
X78271428Y-90504761D01*
X78271428Y-90266666D01*
X78223809Y-90171428D01*
X78652380Y-89695238D02*
X77985714Y-89695238D01*
X78176190Y-89695238D02*
X78080952Y-89647619D01*
X78033333Y-89600000D01*
X77985714Y-89504761D01*
X77985714Y-89409523D01*
X77985714Y-89219047D02*
X77985714Y-88838095D01*
X77652380Y-89076190D02*
X78509523Y-89076190D01*
X78604761Y-89028571D01*
X78652380Y-88933333D01*
X78652380Y-88838095D01*
X77985714Y-88076190D02*
X78652380Y-88076190D01*
X77985714Y-88504761D02*
X78509523Y-88504761D01*
X78604761Y-88457142D01*
X78652380Y-88361904D01*
X78652380Y-88219047D01*
X78604761Y-88123809D01*
X78557142Y-88076190D01*
X77985714Y-87600000D02*
X78985714Y-87600000D01*
X78033333Y-87600000D02*
X77985714Y-87504761D01*
X77985714Y-87314285D01*
X78033333Y-87219047D01*
X78080952Y-87171428D01*
X78176190Y-87123809D01*
X78461904Y-87123809D01*
X78557142Y-87171428D01*
X78604761Y-87219047D01*
X78652380Y-87314285D01*
X78652380Y-87504761D01*
X78604761Y-87600000D01*
X77747619Y-86742857D02*
X77700000Y-86695238D01*
X77652380Y-86600000D01*
X77652380Y-86361904D01*
X77700000Y-86266666D01*
X77747619Y-86219047D01*
X77842857Y-86171428D01*
X77938095Y-86171428D01*
X78080952Y-86219047D01*
X78652380Y-86790476D01*
X78652380Y-86171428D01*
%TO.C,Cin1*%
X89407142Y-81094642D02*
X89454761Y-81142261D01*
X89502380Y-81285119D01*
X89502380Y-81380357D01*
X89454761Y-81523214D01*
X89359523Y-81618452D01*
X89264285Y-81666071D01*
X89073809Y-81713690D01*
X88930952Y-81713690D01*
X88740476Y-81666071D01*
X88645238Y-81618452D01*
X88550000Y-81523214D01*
X88502380Y-81380357D01*
X88502380Y-81285119D01*
X88550000Y-81142261D01*
X88597619Y-81094642D01*
X89502380Y-80666071D02*
X88835714Y-80666071D01*
X88502380Y-80666071D02*
X88550000Y-80713690D01*
X88597619Y-80666071D01*
X88550000Y-80618452D01*
X88502380Y-80666071D01*
X88597619Y-80666071D01*
X88835714Y-80189880D02*
X89502380Y-80189880D01*
X88930952Y-80189880D02*
X88883333Y-80142261D01*
X88835714Y-80047023D01*
X88835714Y-79904166D01*
X88883333Y-79808928D01*
X88978571Y-79761309D01*
X89502380Y-79761309D01*
X89502380Y-78761309D02*
X89502380Y-79332738D01*
X89502380Y-79047023D02*
X88502380Y-79047023D01*
X88645238Y-79142261D01*
X88740476Y-79237500D01*
X88788095Y-79332738D01*
%TO.C,Ccs1*%
X83077142Y-96437500D02*
X83124761Y-96485119D01*
X83172380Y-96627976D01*
X83172380Y-96723214D01*
X83124761Y-96866071D01*
X83029523Y-96961309D01*
X82934285Y-97008928D01*
X82743809Y-97056547D01*
X82600952Y-97056547D01*
X82410476Y-97008928D01*
X82315238Y-96961309D01*
X82220000Y-96866071D01*
X82172380Y-96723214D01*
X82172380Y-96627976D01*
X82220000Y-96485119D01*
X82267619Y-96437500D01*
X83124761Y-95580357D02*
X83172380Y-95675595D01*
X83172380Y-95866071D01*
X83124761Y-95961309D01*
X83077142Y-96008928D01*
X82981904Y-96056547D01*
X82696190Y-96056547D01*
X82600952Y-96008928D01*
X82553333Y-95961309D01*
X82505714Y-95866071D01*
X82505714Y-95675595D01*
X82553333Y-95580357D01*
X83124761Y-95199404D02*
X83172380Y-95104166D01*
X83172380Y-94913690D01*
X83124761Y-94818452D01*
X83029523Y-94770833D01*
X82981904Y-94770833D01*
X82886666Y-94818452D01*
X82839047Y-94913690D01*
X82839047Y-95056547D01*
X82791428Y-95151785D01*
X82696190Y-95199404D01*
X82648571Y-95199404D01*
X82553333Y-95151785D01*
X82505714Y-95056547D01*
X82505714Y-94913690D01*
X82553333Y-94818452D01*
X83172380Y-93818452D02*
X83172380Y-94389880D01*
X83172380Y-94104166D02*
X82172380Y-94104166D01*
X82315238Y-94199404D01*
X82410476Y-94294642D01*
X82458095Y-94389880D01*
%TO.C,M1*%
X91952380Y-85009523D02*
X90952380Y-85009523D01*
X91666666Y-84676190D01*
X90952380Y-84342857D01*
X91952380Y-84342857D01*
X91952380Y-83342857D02*
X91952380Y-83914285D01*
X91952380Y-83628571D02*
X90952380Y-83628571D01*
X91095238Y-83723809D01*
X91190476Y-83819047D01*
X91238095Y-83914285D01*
%TO.C,Rz1*%
X153778571Y-108382380D02*
X153445238Y-107906190D01*
X153207142Y-108382380D02*
X153207142Y-107382380D01*
X153588095Y-107382380D01*
X153683333Y-107430000D01*
X153730952Y-107477619D01*
X153778571Y-107572857D01*
X153778571Y-107715714D01*
X153730952Y-107810952D01*
X153683333Y-107858571D01*
X153588095Y-107906190D01*
X153207142Y-107906190D01*
X154111904Y-107715714D02*
X154635714Y-107715714D01*
X154111904Y-108382380D01*
X154635714Y-108382380D01*
X155540476Y-108382380D02*
X154969047Y-108382380D01*
X155254761Y-108382380D02*
X155254761Y-107382380D01*
X155159523Y-107525238D01*
X155064285Y-107620476D01*
X154969047Y-107668095D01*
%TO.C,Rsc1*%
X90482380Y-97200000D02*
X90006190Y-97533333D01*
X90482380Y-97771428D02*
X89482380Y-97771428D01*
X89482380Y-97390476D01*
X89530000Y-97295238D01*
X89577619Y-97247619D01*
X89672857Y-97200000D01*
X89815714Y-97200000D01*
X89910952Y-97247619D01*
X89958571Y-97295238D01*
X90006190Y-97390476D01*
X90006190Y-97771428D01*
X90434761Y-96819047D02*
X90482380Y-96723809D01*
X90482380Y-96533333D01*
X90434761Y-96438095D01*
X90339523Y-96390476D01*
X90291904Y-96390476D01*
X90196666Y-96438095D01*
X90149047Y-96533333D01*
X90149047Y-96676190D01*
X90101428Y-96771428D01*
X90006190Y-96819047D01*
X89958571Y-96819047D01*
X89863333Y-96771428D01*
X89815714Y-96676190D01*
X89815714Y-96533333D01*
X89863333Y-96438095D01*
X90434761Y-95533333D02*
X90482380Y-95628571D01*
X90482380Y-95819047D01*
X90434761Y-95914285D01*
X90387142Y-95961904D01*
X90291904Y-96009523D01*
X90006190Y-96009523D01*
X89910952Y-95961904D01*
X89863333Y-95914285D01*
X89815714Y-95819047D01*
X89815714Y-95628571D01*
X89863333Y-95533333D01*
X90482380Y-94580952D02*
X90482380Y-95152380D01*
X90482380Y-94866666D02*
X89482380Y-94866666D01*
X89625238Y-94961904D01*
X89720476Y-95057142D01*
X89768095Y-95152380D01*
D11*
%TO.C,R13*%
X99827379Y-103020000D02*
X100162621Y-103020000D01*
X99827379Y-103780000D02*
X100162621Y-103780000D01*
%TO.C,Daux1*%
X100150000Y-86200000D02*
X103450000Y-86200000D01*
X103450000Y-86200000D02*
X103450000Y-79300000D01*
X100150000Y-86200000D02*
X100150000Y-79300000D01*
%TO.C,Rcs1*%
X89180000Y-95167621D02*
X89180000Y-94832379D01*
X88420000Y-95167621D02*
X88420000Y-94832379D01*
%TO.C,Rt1*%
X106180000Y-104967621D02*
X106180000Y-104632379D01*
X105420000Y-104967621D02*
X105420000Y-104632379D01*
%TO.C,Dsnub1*%
X103150000Y-72300000D02*
X103150000Y-74850000D01*
X104850000Y-72300000D02*
X103150000Y-72300000D01*
X104850000Y-72300000D02*
X104850000Y-74850000D01*
%TO.C,R21*%
X138932379Y-110580000D02*
X139267621Y-110580000D01*
X138932379Y-109820000D02*
X139267621Y-109820000D01*
%TO.C,Cref1*%
X102661252Y-97465000D02*
X102138748Y-97465000D01*
X102661252Y-98935000D02*
X102138748Y-98935000D01*
%TO.C,Cvcc1*%
X74004437Y-93140000D02*
X72940000Y-94204437D01*
X72940000Y-97660000D02*
X74140000Y-97660000D01*
X77460000Y-94204437D02*
X77460000Y-97660000D01*
X76395563Y-93140000D02*
X76260000Y-93140000D01*
X77010000Y-92650000D02*
X76510000Y-92650000D01*
X76395563Y-93140000D02*
X77460000Y-94204437D01*
X74004437Y-93140000D02*
X74140000Y-93140000D01*
X77460000Y-97660000D02*
X76260000Y-97660000D01*
X72940000Y-94204437D02*
X72940000Y-97660000D01*
X76760000Y-92400000D02*
X76760000Y-92900000D01*
%TO.C,Rled1*%
X127080000Y-109367621D02*
X127080000Y-109032379D01*
X126320000Y-109367621D02*
X126320000Y-109032379D01*
%TO.C,Rsnub1*%
X95515000Y-56180000D02*
X75275000Y-56180000D01*
X71595000Y-60800000D02*
X75275000Y-60800000D01*
X75275000Y-56180000D02*
X75275000Y-65420000D01*
X95515000Y-65420000D02*
X95515000Y-56180000D01*
X75275000Y-65420000D02*
X95515000Y-65420000D01*
X99195000Y-60800000D02*
X95515000Y-60800000D01*
%TO.C,Rstartup1*%
X81110000Y-82672936D02*
X81110000Y-84127064D01*
X79290000Y-82672936D02*
X79290000Y-84127064D01*
%TO.C,C23*%
X127365000Y-102501248D02*
X127365000Y-103023752D01*
X128835000Y-102501248D02*
X128835000Y-103023752D01*
%TO.C,Rsns1*%
X90672936Y-89290000D02*
X92127064Y-89290000D01*
X90672936Y-91110000D02*
X92127064Y-91110000D01*
%TO.C,C21*%
X149370000Y-105250000D02*
G75*
G03*
X149370000Y-105250000I-4120000J0D01*
G01*
%TO.C,Rbias1*%
X131635000Y-107372936D02*
X131635000Y-107827064D01*
X130165000Y-107372936D02*
X130165000Y-107827064D01*
D12*
%TO.C,U1*%
X98900000Y-98300001D02*
X98900000Y-96499999D01*
X93900000Y-100700001D02*
X93900000Y-96499999D01*
D11*
%TO.C,D21*%
X139300000Y-104600000D02*
X135450000Y-104600000D01*
X139300000Y-106600000D02*
X135450000Y-106600000D01*
X139300000Y-106600000D02*
X139300000Y-104600000D01*
%TO.C,Q1*%
X147990000Y-111100000D02*
X147990000Y-110450000D01*
X147990000Y-111100000D02*
X147990000Y-111750000D01*
X151110000Y-111100000D02*
X151110000Y-111750000D01*
X151110000Y-111100000D02*
X151110000Y-109425000D01*
%TO.C,R11*%
X94780000Y-103967621D02*
X94780000Y-103632379D01*
X94020000Y-103967621D02*
X94020000Y-103632379D01*
%TO.C,T1*%
X106200000Y-63600000D02*
X147700000Y-63600000D01*
X147700000Y-63600000D02*
X147700000Y-95600000D01*
X147700000Y-95600000D02*
X106200000Y-95600000D01*
X106200000Y-95600000D02*
X106200000Y-63600000D01*
%TO.C,VR1*%
X135540000Y-99600000D02*
X135540000Y-98800000D01*
X138660000Y-99600000D02*
X138660000Y-97800000D01*
X138660000Y-99600000D02*
X138660000Y-100400000D01*
X135540000Y-99600000D02*
X135540000Y-100400000D01*
%TO.C,Rsnub2*%
X75275000Y-75820000D02*
X95515000Y-75820000D01*
X71595000Y-71200000D02*
X75275000Y-71200000D01*
X95515000Y-66580000D02*
X75275000Y-66580000D01*
X99195000Y-71200000D02*
X95515000Y-71200000D01*
X95515000Y-75820000D02*
X95515000Y-66580000D01*
X75275000Y-66580000D02*
X75275000Y-75820000D01*
%TO.C,C12*%
X74465000Y-88861252D02*
X74465000Y-88338748D01*
X75935000Y-88861252D02*
X75935000Y-88338748D01*
%TO.C,C22*%
X132235000Y-99138748D02*
X132235000Y-99661252D01*
X130765000Y-99138748D02*
X130765000Y-99661252D01*
%TO.C,Cout1*%
X162695563Y-85590000D02*
X153040000Y-85590000D01*
X165800000Y-94960000D02*
X164550000Y-94960000D01*
X152590000Y-97560000D02*
X152600000Y-98800000D01*
X152590000Y-86840000D02*
X152590000Y-90690000D01*
X164200000Y-96495563D02*
X162695563Y-98810000D01*
X152590000Y-85600000D02*
X152590000Y-86840000D01*
X164200000Y-87904437D02*
X164200000Y-90690000D01*
X153040000Y-85590000D02*
X152590000Y-85600000D01*
X165175000Y-95585000D02*
X165175000Y-94335000D01*
X164200000Y-96495563D02*
X164200000Y-93710000D01*
X152590000Y-97560000D02*
X152590000Y-93710000D01*
X152600000Y-98800000D02*
X153040000Y-98810000D01*
X162695563Y-98810000D02*
X153040000Y-98810000D01*
X164200000Y-87904437D02*
X162695563Y-85590000D01*
%TO.C,R22*%
X126480000Y-98767621D02*
X126480000Y-98432379D01*
X125720000Y-98767621D02*
X125720000Y-98432379D01*
%TO.C,Raux1*%
X101420000Y-91167621D02*
X101420000Y-90832379D01*
X102180000Y-91167621D02*
X102180000Y-90832379D01*
%TO.C,Qsc1*%
X84890226Y-105299724D02*
X85802394Y-104387557D01*
X84812444Y-103397607D02*
X83900277Y-104309775D01*
X83900277Y-104309775D02*
X84890226Y-105299724D01*
X85802181Y-104387426D02*
G75*
G03*
X84812444Y-103397607I1582544J2572150D01*
G01*
%TO.C,Dsec1*%
X161775000Y-73200000D02*
X161775000Y-71700000D01*
X151375000Y-71700000D02*
X153185000Y-71700000D01*
X159965000Y-71700000D02*
X159965000Y-66575000D01*
X161775000Y-71700000D02*
X159965000Y-71700000D01*
X153185000Y-71700000D02*
X153185000Y-70600000D01*
X151375000Y-73200000D02*
X151375000Y-71700000D01*
%TO.C,Ct1*%
X80261252Y-102135000D02*
X79738748Y-102135000D01*
X80261252Y-100665000D02*
X79738748Y-100665000D01*
%TO.C,Rfbt1*%
X149834879Y-95980000D02*
X150170121Y-95980000D01*
X149834879Y-95220000D02*
X150170121Y-95220000D01*
%TO.C,Dz1*%
X150350000Y-101100000D02*
X150350000Y-103100000D01*
X150350000Y-101100000D02*
X154250000Y-101100000D01*
X150350000Y-103100000D02*
X154250000Y-103100000D01*
%TO.C,R12*%
X99834879Y-104820000D02*
X100170121Y-104820000D01*
X99834879Y-105580000D02*
X100170121Y-105580000D01*
%TO.C,C13*%
X96560000Y-103915835D02*
X96560000Y-103684165D01*
X95840000Y-103915835D02*
X95840000Y-103684165D01*
%TO.C,Rdrv1*%
X97735000Y-90627064D02*
X97735000Y-90172936D01*
X96265000Y-90627064D02*
X96265000Y-90172936D01*
%TO.C,O1*%
X121722500Y-103425000D02*
X121722500Y-103640000D01*
X119412500Y-106245000D02*
X121722500Y-106245000D01*
X121722500Y-106030000D02*
X123412500Y-106030000D01*
X121722500Y-106245000D02*
X121722500Y-106030000D01*
X119412500Y-103425000D02*
X117102500Y-103425000D01*
X119412500Y-103425000D02*
X121722500Y-103425000D01*
X119412500Y-106245000D02*
X117102500Y-106245000D01*
X117102500Y-103425000D02*
X117102500Y-103640000D01*
X117102500Y-106245000D02*
X117102500Y-106030000D01*
%TO.C,Csnub1*%
X104360000Y-68684165D02*
X104360000Y-68915835D01*
X103640000Y-68684165D02*
X103640000Y-68915835D01*
%TO.C,Rfbb1*%
X148780000Y-98170121D02*
X148780000Y-97834879D01*
X148020000Y-98170121D02*
X148020000Y-97834879D01*
%TO.C,Rstartup2*%
X79290000Y-88872936D02*
X79290000Y-90327064D01*
X81110000Y-88872936D02*
X81110000Y-90327064D01*
%TO.C,Cin1*%
X86290000Y-79526248D02*
X86290000Y-80948752D01*
X88110000Y-79526248D02*
X88110000Y-80948752D01*
%TO.C,Ccs1*%
X85135000Y-95698752D02*
X85135000Y-95176248D01*
X83665000Y-95698752D02*
X83665000Y-95176248D01*
%TO.C,M1*%
X97335000Y-87260000D02*
X97685000Y-87260000D01*
X92315000Y-81140000D02*
X92315000Y-87260000D01*
X97685000Y-81140000D02*
X97685000Y-87260000D01*
X92615000Y-81140000D02*
X92315000Y-81140000D01*
X97385000Y-81140000D02*
X97685000Y-81140000D01*
%TO.C,Rz1*%
X155877064Y-107010000D02*
X152822936Y-107010000D01*
X155877064Y-104290000D02*
X152822936Y-104290000D01*
%TO.C,Rsc1*%
X90820000Y-96367621D02*
X90820000Y-96032379D01*
X91580000Y-96367621D02*
X91580000Y-96032379D01*
%TD*%
M02*
