%TF.GenerationSoftware,KiCad,Pcbnew,(6.0.9)*%
%TF.CreationDate,2023-06-16T09:03:50+03:00*%
%TF.ProjectId,pcb-design,7063622d-6465-4736-9967-6e2e6b696361,rev?*%
%TF.SameCoordinates,Original*%
%TF.FileFunction,Copper,L1,Top*%
%TF.FilePolarity,Positive*%
%FSLAX46Y46*%
G04 Gerber Fmt 4.6, Leading zero omitted, Abs format (unit mm)*
G04 Created by KiCad (PCBNEW (6.0.9)) date 2023-06-16 09:03:50*
%MOMM*%
%LPD*%
G01*
G04 APERTURE LIST*
G04 Aperture macros list*
%AMRoundRect*
0 Rectangle with rounded corners*
0 $1 Rounding radius*
0 $2 $3 $4 $5 $6 $7 $8 $9 X,Y pos of 4 corners*
0 Add a 4 corners polygon primitive as box body*
4,1,4,$2,$3,$4,$5,$6,$7,$8,$9,$2,$3,0*
0 Add four circle primitives for the rounded corners*
1,1,$1+$1,$2,$3*
1,1,$1+$1,$4,$5*
1,1,$1+$1,$6,$7*
1,1,$1+$1,$8,$9*
0 Add four rect primitives between the rounded corners*
20,1,$1+$1,$2,$3,$4,$5,0*
20,1,$1+$1,$4,$5,$6,$7,0*
20,1,$1+$1,$6,$7,$8,$9,0*
20,1,$1+$1,$8,$9,$2,$3,0*%
G04 Aperture macros list end*
%TA.AperFunction,SMDPad,CuDef*%
%ADD10RoundRect,0.160000X-0.197500X-0.160000X0.197500X-0.160000X0.197500X0.160000X-0.197500X0.160000X0*%
%TD*%
%TA.AperFunction,SMDPad,CuDef*%
%ADD11R,1.800000X3.500000*%
%TD*%
%TA.AperFunction,SMDPad,CuDef*%
%ADD12RoundRect,0.160000X0.160000X-0.197500X0.160000X0.197500X-0.160000X0.197500X-0.160000X-0.197500X0*%
%TD*%
%TA.AperFunction,SMDPad,CuDef*%
%ADD13R,0.450000X0.600000*%
%TD*%
%TA.AperFunction,SMDPad,CuDef*%
%ADD14RoundRect,0.250000X0.337500X0.475000X-0.337500X0.475000X-0.337500X-0.475000X0.337500X-0.475000X0*%
%TD*%
%TA.AperFunction,SMDPad,CuDef*%
%ADD15RoundRect,0.250000X-0.550000X1.050000X-0.550000X-1.050000X0.550000X-1.050000X0.550000X1.050000X0*%
%TD*%
%TA.AperFunction,ComponentPad*%
%ADD16C,2.400000*%
%TD*%
%TA.AperFunction,ComponentPad*%
%ADD17O,2.400000X2.400000*%
%TD*%
%TA.AperFunction,SMDPad,CuDef*%
%ADD18RoundRect,0.250000X-0.625000X0.400000X-0.625000X-0.400000X0.625000X-0.400000X0.625000X0.400000X0*%
%TD*%
%TA.AperFunction,SMDPad,CuDef*%
%ADD19RoundRect,0.250000X-0.475000X0.337500X-0.475000X-0.337500X0.475000X-0.337500X0.475000X0.337500X0*%
%TD*%
%TA.AperFunction,SMDPad,CuDef*%
%ADD20RoundRect,0.250000X-0.400000X-0.625000X0.400000X-0.625000X0.400000X0.625000X-0.400000X0.625000X0*%
%TD*%
%TA.AperFunction,ComponentPad*%
%ADD21C,1.600000*%
%TD*%
%TA.AperFunction,SMDPad,CuDef*%
%ADD22RoundRect,0.250000X-0.450000X0.350000X-0.450000X-0.350000X0.450000X-0.350000X0.450000X0.350000X0*%
%TD*%
%TA.AperFunction,SMDPad,CuDef*%
%ADD23O,0.650001X1.649999*%
%TD*%
%TA.AperFunction,SMDPad,CuDef*%
%ADD24R,1.100000X1.100000*%
%TD*%
%TA.AperFunction,SMDPad,CuDef*%
%ADD25RoundRect,0.150000X-0.150000X0.587500X-0.150000X-0.587500X0.150000X-0.587500X0.150000X0.587500X0*%
%TD*%
%TA.AperFunction,ComponentPad*%
%ADD26C,2.000000*%
%TD*%
%TA.AperFunction,SMDPad,CuDef*%
%ADD27RoundRect,0.150000X-0.150000X0.512500X-0.150000X-0.512500X0.150000X-0.512500X0.150000X0.512500X0*%
%TD*%
%TA.AperFunction,SMDPad,CuDef*%
%ADD28RoundRect,0.250000X0.475000X-0.337500X0.475000X0.337500X-0.475000X0.337500X-0.475000X-0.337500X0*%
%TD*%
%TA.AperFunction,SMDPad,CuDef*%
%ADD29RoundRect,0.250000X2.125000X1.000000X-2.125000X1.000000X-2.125000X-1.000000X2.125000X-1.000000X0*%
%TD*%
%TA.AperFunction,SMDPad,CuDef*%
%ADD30RoundRect,0.250000X1.950000X1.000000X-1.950000X1.000000X-1.950000X-1.000000X1.950000X-1.000000X0*%
%TD*%
%TA.AperFunction,ComponentPad*%
%ADD31O,1.200000X1.600000*%
%TD*%
%TA.AperFunction,ComponentPad*%
%ADD32O,1.200000X1.200000*%
%TD*%
%TA.AperFunction,SMDPad,CuDef*%
%ADD33R,10.800000X9.400000*%
%TD*%
%TA.AperFunction,SMDPad,CuDef*%
%ADD34R,1.100000X4.600000*%
%TD*%
%TA.AperFunction,SMDPad,CuDef*%
%ADD35R,0.900000X1.200000*%
%TD*%
%TA.AperFunction,SMDPad,CuDef*%
%ADD36RoundRect,0.155000X0.155000X-0.212500X0.155000X0.212500X-0.155000X0.212500X-0.155000X-0.212500X0*%
%TD*%
%TA.AperFunction,SMDPad,CuDef*%
%ADD37RoundRect,0.250000X0.450000X-0.350000X0.450000X0.350000X-0.450000X0.350000X-0.450000X-0.350000X0*%
%TD*%
%TA.AperFunction,SMDPad,CuDef*%
%ADD38RoundRect,0.150000X0.662500X0.150000X-0.662500X0.150000X-0.662500X-0.150000X0.662500X-0.150000X0*%
%TD*%
%TA.AperFunction,SMDPad,CuDef*%
%ADD39RoundRect,0.155000X-0.155000X0.212500X-0.155000X-0.212500X0.155000X-0.212500X0.155000X0.212500X0*%
%TD*%
%TA.AperFunction,SMDPad,CuDef*%
%ADD40RoundRect,0.250000X-0.650000X0.412500X-0.650000X-0.412500X0.650000X-0.412500X0.650000X0.412500X0*%
%TD*%
%TA.AperFunction,SMDPad,CuDef*%
%ADD41R,0.500000X0.850000*%
%TD*%
%TA.AperFunction,SMDPad,CuDef*%
%ADD42R,4.410000X4.550000*%
%TD*%
%TA.AperFunction,SMDPad,CuDef*%
%ADD43RoundRect,0.249999X0.450001X1.075001X-0.450001X1.075001X-0.450001X-1.075001X0.450001X-1.075001X0*%
%TD*%
%TA.AperFunction,ViaPad*%
%ADD44C,0.800000*%
%TD*%
%TA.AperFunction,Conductor*%
%ADD45C,0.500000*%
%TD*%
%TA.AperFunction,Conductor*%
%ADD46C,1.200000*%
%TD*%
%TA.AperFunction,Conductor*%
%ADD47C,1.500000*%
%TD*%
%TA.AperFunction,Conductor*%
%ADD48C,1.000000*%
%TD*%
%TA.AperFunction,Conductor*%
%ADD49C,5.000000*%
%TD*%
%TA.AperFunction,Conductor*%
%ADD50C,3.000000*%
%TD*%
%TA.AperFunction,Conductor*%
%ADD51C,4.000000*%
%TD*%
%TA.AperFunction,Conductor*%
%ADD52C,0.800000*%
%TD*%
G04 APERTURE END LIST*
D10*
%TO.P,R13,1*%
%TO.N,Net-(C13-Pad1)*%
X99397500Y-103400000D03*
%TO.P,R13,2*%
%TO.N,Net-(O1-Pad3)*%
X100592500Y-103400000D03*
%TD*%
D11*
%TO.P,Daux1,1,K*%
%TO.N,Net-(Daux1-Pad1)*%
X101800000Y-84300000D03*
%TO.P,Daux1,2,A*%
%TO.N,Net-(Daux1-Pad2)*%
X101800000Y-79300000D03*
%TD*%
D12*
%TO.P,Rcs1,1*%
%TO.N,Net-(Ccs1-Pad2)*%
X88800000Y-95597500D03*
%TO.P,Rcs1,2*%
%TO.N,Net-(M1-Pad1)*%
X88800000Y-94402500D03*
%TD*%
%TO.P,Rt1,1*%
%TO.N,Net-(Ct1-Pad1)*%
X105800000Y-105397500D03*
%TO.P,Rt1,2*%
%TO.N,Net-(Cref1-Pad2)*%
X105800000Y-104202500D03*
%TD*%
D13*
%TO.P,Dsnub1,1,K*%
%TO.N,Net-(Csnub1-Pad2)*%
X104000000Y-72750000D03*
%TO.P,Dsnub1,2,A*%
%TO.N,Net-(Dsnub1-Pad2)*%
X104000000Y-74850000D03*
%TD*%
D10*
%TO.P,R21,1*%
%TO.N,Net-(C21-Pad1)*%
X138502500Y-110200000D03*
%TO.P,R21,2*%
%TO.N,Net-(Q1-Pad2)*%
X139697500Y-110200000D03*
%TD*%
D14*
%TO.P,Cref1,1*%
%TO.N,GNDREF*%
X103437500Y-98200000D03*
%TO.P,Cref1,2*%
%TO.N,Net-(Cref1-Pad2)*%
X101362500Y-98200000D03*
%TD*%
D15*
%TO.P,Cvcc1,1*%
%TO.N,Net-(C12-Pad1)*%
X75200000Y-93600000D03*
%TO.P,Cvcc1,2*%
%TO.N,GNDREF*%
X75200000Y-97200000D03*
%TD*%
D12*
%TO.P,Rled1,1*%
%TO.N,Net-(O1-Pad1)*%
X126700000Y-109797500D03*
%TO.P,Rled1,2*%
%TO.N,Net-(Q1-Pad2)*%
X126700000Y-108602500D03*
%TD*%
D16*
%TO.P,Rsnub1,1*%
%TO.N,VDC*%
X70155000Y-60800000D03*
D17*
%TO.P,Rsnub1,2*%
%TO.N,Net-(Csnub1-Pad2)*%
X100635000Y-60800000D03*
%TD*%
D18*
%TO.P,Rstartup1,1*%
%TO.N,VDC*%
X80200000Y-81850000D03*
%TO.P,Rstartup1,2*%
%TO.N,Net-(Rstartup1-Pad2)*%
X80200000Y-84950000D03*
%TD*%
D19*
%TO.P,C23,1*%
%TO.N,Net-(C22-Pad2)*%
X128100000Y-101725000D03*
%TO.P,C23,2*%
%TO.N,Net-(C23-Pad2)*%
X128100000Y-103800000D03*
%TD*%
D20*
%TO.P,Rsns1,1*%
%TO.N,GNDREF*%
X89850000Y-90200000D03*
%TO.P,Rsns1,2*%
%TO.N,Net-(M1-Pad1)*%
X92950000Y-90200000D03*
%TD*%
D21*
%TO.P,C21,1*%
%TO.N,Net-(C21-Pad1)*%
X145250000Y-107000000D03*
%TO.P,C21,2*%
%TO.N,GND*%
X145250000Y-103500000D03*
%TD*%
D22*
%TO.P,Rbias1,1*%
%TO.N,Net-(C22-Pad1)*%
X130900000Y-106600000D03*
%TO.P,Rbias1,2*%
%TO.N,Net-(Q1-Pad2)*%
X130900000Y-108600000D03*
%TD*%
D23*
%TO.P,U1,1,COMP*%
%TO.N,Net-(C13-Pad2)*%
X94495000Y-100225001D03*
%TO.P,U1,2,FB*%
%TO.N,Net-(C13-Pad1)*%
X95765000Y-100225001D03*
%TO.P,U1,3,CS*%
%TO.N,Net-(Ccs1-Pad2)*%
X97035000Y-100225001D03*
%TO.P,U1,4,RC*%
%TO.N,Net-(Ct1-Pad1)*%
X98305000Y-100225001D03*
%TO.P,U1,5,GND*%
%TO.N,GNDREF*%
X98305000Y-94575002D03*
%TO.P,U1,6,OUT*%
%TO.N,Net-(Rdrv1-Pad1)*%
X97035000Y-94575002D03*
%TO.P,U1,7,VCC*%
%TO.N,Net-(C12-Pad1)*%
X95765000Y-94575002D03*
%TO.P,U1,8,REF*%
%TO.N,Net-(Cref1-Pad2)*%
X94495000Y-94575002D03*
%TD*%
D24*
%TO.P,D21,1,K*%
%TO.N,Net-(C21-Pad1)*%
X138500000Y-105600000D03*
%TO.P,D21,2,A*%
%TO.N,Net-(C22-Pad1)*%
X135700000Y-105600000D03*
%TD*%
D25*
%TO.P,Q1,1,B*%
%TO.N,Net-(Dz1-Pad1)*%
X150500000Y-110162500D03*
%TO.P,Q1,2,E*%
%TO.N,Net-(Q1-Pad2)*%
X148600000Y-110162500D03*
%TO.P,Q1,3,C*%
%TO.N,Vout*%
X149550000Y-112037500D03*
%TD*%
D12*
%TO.P,R11,1*%
%TO.N,Net-(C13-Pad1)*%
X94400000Y-104397500D03*
%TO.P,R11,2*%
%TO.N,Net-(C13-Pad2)*%
X94400000Y-103202500D03*
%TD*%
D26*
%TO.P,T1,1,AA*%
%TO.N,VDC*%
X107200000Y-64600000D03*
%TO.P,T1,2,AB*%
X107200000Y-69600000D03*
%TO.P,T1,3,SA*%
%TO.N,Net-(Dsnub1-Pad2)*%
X107200000Y-74600000D03*
%TO.P,T1,4,SB*%
X107200000Y-79600000D03*
%TO.P,T1,5,SC*%
%TO.N,Net-(Daux1-Pad2)*%
X107200000Y-84600000D03*
%TO.P,T1,6,SD*%
%TO.N,GNDREF*%
X107200000Y-89600000D03*
%TO.P,T1,7*%
X107200000Y-94600000D03*
%TO.P,T1,8*%
%TO.N,N/C*%
X146700000Y-64600000D03*
%TO.P,T1,9*%
%TO.N,Net-(Dsec1-Pad2)*%
X146700000Y-69600000D03*
%TO.P,T1,10*%
X146700000Y-74600000D03*
%TO.P,T1,11*%
%TO.N,GND*%
X146700000Y-79600000D03*
%TO.P,T1,12*%
X146700000Y-84600000D03*
%TO.P,T1,13*%
%TO.N,N/C*%
X146700000Y-89600000D03*
%TO.P,T1,14*%
X146700000Y-94600000D03*
%TD*%
D27*
%TO.P,VR1,1*%
%TO.N,N/C*%
X138050000Y-98462500D03*
%TO.P,VR1,2*%
X137100000Y-98462500D03*
%TO.P,VR1,3,K*%
%TO.N,Net-(C22-Pad1)*%
X136150000Y-98462500D03*
%TO.P,VR1,4,REF*%
%TO.N,Net-(C23-Pad2)*%
X136150000Y-100737500D03*
%TO.P,VR1,5,A*%
%TO.N,GND*%
X138050000Y-100737500D03*
%TD*%
D16*
%TO.P,Rsnub2,1*%
%TO.N,VDC*%
X70155000Y-71200000D03*
D17*
%TO.P,Rsnub2,2*%
%TO.N,Net-(Csnub1-Pad2)*%
X100635000Y-71200000D03*
%TD*%
D28*
%TO.P,C12,1*%
%TO.N,Net-(C12-Pad1)*%
X75200000Y-89637500D03*
%TO.P,C12,2*%
%TO.N,GNDREF*%
X75200000Y-87562500D03*
%TD*%
D19*
%TO.P,C22,1*%
%TO.N,Net-(C22-Pad1)*%
X131500000Y-98362500D03*
%TO.P,C22,2*%
%TO.N,Net-(C22-Pad2)*%
X131500000Y-100437500D03*
%TD*%
D29*
%TO.P,Cout1,1*%
%TO.N,Vout*%
X162875000Y-92200000D03*
D30*
%TO.P,Cout1,2*%
%TO.N,GND*%
X153750000Y-92200000D03*
%TD*%
D12*
%TO.P,R22,1*%
%TO.N,Net-(C22-Pad2)*%
X126100000Y-99197500D03*
%TO.P,R22,2*%
%TO.N,Net-(C22-Pad1)*%
X126100000Y-98002500D03*
%TD*%
%TO.P,Raux1,1*%
%TO.N,Net-(C12-Pad1)*%
X101800000Y-91597500D03*
%TO.P,Raux1,2*%
%TO.N,Net-(Daux1-Pad1)*%
X101800000Y-90402500D03*
%TD*%
D31*
%TO.P,Qsc1,1,B2*%
%TO.N,Net-(Cref1-Pad2)*%
X87384725Y-103085276D03*
D32*
%TO.P,Qsc1,2,E*%
%TO.N,Net-(Ct1-Pad1)*%
X88654725Y-101815276D03*
%TO.P,Qsc1,3,B1*%
%TO.N,Net-(Qsc1-Pad3)*%
X87384725Y-100545276D03*
%TD*%
D33*
%TO.P,Dsec1,1,K*%
%TO.N,Vout*%
X156575000Y-78025000D03*
D34*
X159115000Y-68875000D03*
%TO.P,Dsec1,2,A*%
%TO.N,Net-(Dsec1-Pad2)*%
X154035000Y-68875000D03*
%TD*%
D14*
%TO.P,Ct1,1*%
%TO.N,Net-(Ct1-Pad1)*%
X81037500Y-101400000D03*
%TO.P,Ct1,2*%
%TO.N,GNDREF*%
X78962500Y-101400000D03*
%TD*%
D10*
%TO.P,Rfbt1,1*%
%TO.N,Net-(C23-Pad2)*%
X149405000Y-95600000D03*
%TO.P,Rfbt1,2*%
%TO.N,Vout*%
X150600000Y-95600000D03*
%TD*%
D35*
%TO.P,Dz1,1,K*%
%TO.N,Net-(Dz1-Pad1)*%
X150950000Y-102100000D03*
%TO.P,Dz1,2,A*%
%TO.N,GND*%
X154250000Y-102100000D03*
%TD*%
D10*
%TO.P,R12,1*%
%TO.N,GNDREF*%
X99405000Y-105200000D03*
%TO.P,R12,2*%
%TO.N,Net-(O1-Pad3)*%
X100600000Y-105200000D03*
%TD*%
D36*
%TO.P,C13,1*%
%TO.N,Net-(C13-Pad1)*%
X96200000Y-104367500D03*
%TO.P,C13,2*%
%TO.N,Net-(C13-Pad2)*%
X96200000Y-103232500D03*
%TD*%
D37*
%TO.P,Rdrv1,1*%
%TO.N,Net-(Rdrv1-Pad1)*%
X97000000Y-91400000D03*
%TO.P,Rdrv1,2*%
%TO.N,Net-(M1-Pad4)*%
X97000000Y-89400000D03*
%TD*%
D38*
%TO.P,O1,1*%
%TO.N,Net-(O1-Pad1)*%
X122600000Y-105470000D03*
%TO.P,O1,2*%
%TO.N,Net-(C22-Pad1)*%
X122600000Y-104200000D03*
%TO.P,O1,3*%
%TO.N,Net-(O1-Pad3)*%
X116225000Y-104200000D03*
%TO.P,O1,4*%
%TO.N,Net-(Cref1-Pad2)*%
X116225000Y-105470000D03*
%TD*%
D39*
%TO.P,Csnub1,1*%
%TO.N,VDC*%
X104000000Y-68232500D03*
%TO.P,Csnub1,2*%
%TO.N,Net-(Csnub1-Pad2)*%
X104000000Y-69367500D03*
%TD*%
D12*
%TO.P,Rfbb1,1*%
%TO.N,GND*%
X148400000Y-98600000D03*
%TO.P,Rfbb1,2*%
%TO.N,Net-(C23-Pad2)*%
X148400000Y-97405000D03*
%TD*%
D18*
%TO.P,Rstartup2,1*%
%TO.N,Net-(Rstartup1-Pad2)*%
X80200000Y-88050000D03*
%TO.P,Rstartup2,2*%
%TO.N,Net-(C12-Pad1)*%
X80200000Y-91150000D03*
%TD*%
D40*
%TO.P,Cin1,1*%
%TO.N,VDC*%
X87200000Y-78675000D03*
%TO.P,Cin1,2*%
%TO.N,GNDREF*%
X87200000Y-81800000D03*
%TD*%
D28*
%TO.P,Ccs1,1*%
%TO.N,GNDREF*%
X84400000Y-96475000D03*
%TO.P,Ccs1,2*%
%TO.N,Net-(Ccs1-Pad2)*%
X84400000Y-94400000D03*
%TD*%
D41*
%TO.P,M1,1,S*%
%TO.N,Net-(M1-Pad1)*%
X93095000Y-87100000D03*
%TO.P,M1,2,S*%
X94365000Y-87100000D03*
%TO.P,M1,3,S*%
X95635000Y-87100000D03*
%TO.P,M1,4,G*%
%TO.N,Net-(M1-Pad4)*%
X96905000Y-87100000D03*
D42*
%TO.P,M1,5,D*%
%TO.N,Net-(Dsnub1-Pad2)*%
X95000000Y-83150000D03*
%TD*%
D43*
%TO.P,Rz1,1*%
%TO.N,Vout*%
X156750000Y-105650000D03*
%TO.P,Rz1,2*%
%TO.N,Net-(Dz1-Pad1)*%
X151950000Y-105650000D03*
%TD*%
D12*
%TO.P,Rsc1,1*%
%TO.N,Net-(Qsc1-Pad3)*%
X91200000Y-96797500D03*
%TO.P,Rsc1,2*%
%TO.N,Net-(Ccs1-Pad2)*%
X91200000Y-95602500D03*
%TD*%
D44*
%TO.N,Net-(C12-Pad1)*%
X93600000Y-92400000D03*
X85800000Y-91800000D03*
%TO.N,GNDREF*%
X87400000Y-87600000D03*
X75200000Y-85000000D03*
X80800000Y-97200000D03*
X97800000Y-106400000D03*
X99800000Y-92400000D03*
X87200000Y-84600000D03*
X75200000Y-100600000D03*
%TO.N,GND*%
X136500000Y-102800000D03*
%TO.N,Net-(C23-Pad2)*%
X131900000Y-103400000D03*
X143500000Y-97000000D03*
%TO.N,Net-(Cref1-Pad2)*%
X91400000Y-94200000D03*
%TO.N,Net-(Ct1-Pad1)*%
X100400000Y-101000000D03*
%TD*%
D45*
%TO.N,Net-(C12-Pad1)*%
X93600000Y-92400000D02*
X95000000Y-92400000D01*
X76712500Y-91150000D02*
X80200000Y-91150000D01*
X95000000Y-92400000D02*
X95765000Y-93165000D01*
X96400000Y-96000000D02*
X100200000Y-96000000D01*
X101800000Y-94400000D02*
X101800000Y-91597500D01*
X95765000Y-94575002D02*
X95765000Y-95365000D01*
X95765000Y-93165000D02*
X95765000Y-94575002D01*
X100200000Y-96000000D02*
X101800000Y-94400000D01*
X75200000Y-89637500D02*
X76712500Y-91150000D01*
X85150000Y-91150000D02*
X85800000Y-91800000D01*
X80200000Y-91150000D02*
X85150000Y-91150000D01*
X95765000Y-95365000D02*
X96400000Y-96000000D01*
X75200000Y-93600000D02*
X75200000Y-89637500D01*
%TO.N,GNDREF*%
X99405000Y-105200000D02*
X99000000Y-105200000D01*
X89850000Y-90050000D02*
X87400000Y-87600000D01*
X103437500Y-98200000D02*
X106000000Y-98200000D01*
X98305000Y-93895000D02*
X99800000Y-92400000D01*
X76200000Y-101600000D02*
X78762500Y-101600000D01*
X99000000Y-105200000D02*
X97800000Y-106400000D01*
X75200000Y-100600000D02*
X76200000Y-101600000D01*
X81325000Y-96475000D02*
X81200000Y-96600000D01*
X75200000Y-97200000D02*
X75200000Y-100600000D01*
X87200000Y-81800000D02*
X87200000Y-84600000D01*
X106000000Y-98200000D02*
X107200000Y-97000000D01*
X84400000Y-96475000D02*
X81325000Y-96475000D01*
X98305000Y-94575002D02*
X98305000Y-93895000D01*
X75200000Y-87562500D02*
X75200000Y-85000000D01*
X89850000Y-90200000D02*
X89850000Y-90050000D01*
X78762500Y-101600000D02*
X78962500Y-101400000D01*
X81200000Y-96600000D02*
X80800000Y-97200000D01*
X107200000Y-97000000D02*
X107200000Y-94600000D01*
%TO.N,Net-(C13-Pad1)*%
X95765000Y-100225001D02*
X95765000Y-100965000D01*
X96200000Y-104367500D02*
X97632500Y-104367500D01*
X97632500Y-102832500D02*
X97632500Y-104367500D01*
X98430000Y-104367500D02*
X99397500Y-103400000D01*
X97632500Y-104367500D02*
X98430000Y-104367500D01*
X94400000Y-104397500D02*
X96170000Y-104397500D01*
X96170000Y-104397500D02*
X96200000Y-104367500D01*
X95765000Y-100965000D02*
X97632500Y-102832500D01*
%TO.N,Net-(C13-Pad2)*%
X94400000Y-103202500D02*
X94400000Y-100320001D01*
X94400000Y-100320001D02*
X94495000Y-100225001D01*
X94400000Y-103202500D02*
X96170000Y-103202500D01*
X96170000Y-103202500D02*
X96200000Y-103232500D01*
%TO.N,Net-(C21-Pad1)*%
X138502500Y-105602500D02*
X138500000Y-105600000D01*
X145250000Y-107000000D02*
X139900000Y-107000000D01*
X139900000Y-107000000D02*
X138500000Y-105600000D01*
X138502500Y-110200000D02*
X138502500Y-105602500D01*
%TO.N,GND*%
X152000000Y-100000000D02*
X152100000Y-99900000D01*
D46*
X154250000Y-100950000D02*
X154250000Y-102100000D01*
D47*
X153750000Y-98250000D02*
X152100000Y-99900000D01*
D46*
X148700000Y-100000000D02*
X152000000Y-100000000D01*
D48*
X148400000Y-100350000D02*
X147850000Y-100900000D01*
D46*
X153200000Y-99900000D02*
X154250000Y-100950000D01*
D48*
X148400000Y-98600000D02*
X148400000Y-100350000D01*
D45*
X138050000Y-100737500D02*
X138050000Y-101250000D01*
D47*
X153750000Y-92200000D02*
X153750000Y-98250000D01*
D45*
X152100000Y-99900000D02*
X153200000Y-99900000D01*
X138050000Y-101250000D02*
X136500000Y-102800000D01*
D48*
X145250000Y-103500000D02*
X147850000Y-100900000D01*
D45*
%TO.N,Net-(C22-Pad1)*%
X131900000Y-105600000D02*
X135700000Y-105600000D01*
X131140000Y-98002500D02*
X131500000Y-98362500D01*
X130900000Y-106600000D02*
X131900000Y-105600000D01*
X135700000Y-105600000D02*
X137900000Y-103400000D01*
X136150000Y-97350000D02*
X136150000Y-98462500D01*
X125000000Y-97900000D02*
X125997500Y-97900000D01*
X126100000Y-98002500D02*
X131140000Y-98002500D01*
X131500000Y-98362500D02*
X136050000Y-98362500D01*
X141100000Y-96800000D02*
X140700000Y-96400000D01*
X137100000Y-96400000D02*
X136150000Y-97350000D01*
X141100000Y-101800000D02*
X141100000Y-96800000D01*
X125997500Y-97900000D02*
X126100000Y-98002500D01*
X139500000Y-103400000D02*
X141100000Y-101800000D01*
X140700000Y-96400000D02*
X137100000Y-96400000D01*
X122600000Y-100300000D02*
X125000000Y-97900000D01*
X122600000Y-104200000D02*
X122600000Y-100300000D01*
X136050000Y-98362500D02*
X136150000Y-98462500D01*
X137900000Y-103400000D02*
X139500000Y-103400000D01*
%TO.N,Net-(C22-Pad2)*%
X128100000Y-101725000D02*
X130212500Y-101725000D01*
X126100000Y-99197500D02*
X126100000Y-99725000D01*
X130212500Y-101725000D02*
X131500000Y-100437500D01*
X126100000Y-99725000D02*
X128100000Y-101725000D01*
%TO.N,Net-(C23-Pad2)*%
X148400000Y-97405000D02*
X148400000Y-96605000D01*
X128100000Y-103800000D02*
X131500000Y-103800000D01*
X131900000Y-103400000D02*
X134562500Y-100737500D01*
X143500000Y-97000000D02*
X147995000Y-97000000D01*
X131500000Y-103800000D02*
X131900000Y-103400000D01*
X148400000Y-96605000D02*
X149405000Y-95600000D01*
X147995000Y-97000000D02*
X148400000Y-97405000D01*
X134562500Y-100737500D02*
X136150000Y-100737500D01*
%TO.N,Net-(Ccs1-Pad2)*%
X97035000Y-98535000D02*
X97035000Y-100225001D01*
X88800000Y-95597500D02*
X85597500Y-95597500D01*
X92602500Y-95602500D02*
X95000000Y-98000000D01*
X85597500Y-95597500D02*
X84400000Y-94400000D01*
X88800000Y-95597500D02*
X91195000Y-95597500D01*
X91195000Y-95597500D02*
X91200000Y-95602500D01*
X91200000Y-95602500D02*
X92602500Y-95602500D01*
X95000000Y-98000000D02*
X96500000Y-98000000D01*
X96500000Y-98000000D02*
X97035000Y-98535000D01*
%TO.N,VDC*%
X104000000Y-68232500D02*
X104000000Y-67800000D01*
D46*
X70155000Y-60800000D02*
X70155000Y-71200000D01*
D49*
X106300000Y-65500000D02*
X105800000Y-66000000D01*
D46*
X105400000Y-67800000D02*
X104000000Y-67800000D01*
D50*
X105800000Y-66000000D02*
X107200000Y-64600000D01*
D46*
X107200000Y-64600000D02*
X104000000Y-67800000D01*
D49*
X97800000Y-65500000D02*
X106300000Y-65500000D01*
D46*
X107200000Y-69600000D02*
X105400000Y-67800000D01*
X70155000Y-71200000D02*
X80200000Y-81245000D01*
D51*
X107200000Y-69600000D02*
X107200000Y-64600000D01*
D46*
X80200000Y-81245000D02*
X80200000Y-81850000D01*
D48*
%TO.N,Vout*%
X150600000Y-94300000D02*
X150100000Y-93800000D01*
D45*
X156550000Y-86500000D02*
X156575000Y-86525000D01*
D52*
X156750000Y-108150000D02*
X156750000Y-105650000D01*
D50*
X156575000Y-85900000D02*
X162875000Y-92200000D01*
D52*
X152862500Y-112037500D02*
X156750000Y-108150000D01*
D48*
X150100000Y-90000000D02*
X153600000Y-86500000D01*
D52*
X149550000Y-112037500D02*
X152862500Y-112037500D01*
D48*
X150100000Y-93800000D02*
X150100000Y-90000000D01*
D47*
X159200000Y-103200000D02*
X159200000Y-95875000D01*
X156750000Y-105650000D02*
X159200000Y-103200000D01*
X159200000Y-95875000D02*
X162875000Y-92200000D01*
D45*
X156575000Y-86525000D02*
X156575000Y-85900000D01*
D48*
X150600000Y-95600000D02*
X150600000Y-94300000D01*
D45*
%TO.N,Net-(Cref1-Pad2)*%
X91400000Y-94200000D02*
X94119998Y-94200000D01*
X105800000Y-104202500D02*
X110202500Y-104202500D01*
X111470000Y-105470000D02*
X116225000Y-105470000D01*
X94495000Y-95495000D02*
X94495000Y-94575002D01*
X110202500Y-104202500D02*
X111470000Y-105470000D01*
X105800000Y-104202500D02*
X105800000Y-102637500D01*
X100000000Y-98200000D02*
X98554000Y-96754000D01*
X95754000Y-96754000D02*
X94495000Y-95495000D01*
X105800000Y-102637500D02*
X101362500Y-98200000D01*
X98554000Y-96754000D02*
X95754000Y-96754000D01*
X101362500Y-98200000D02*
X100000000Y-98200000D01*
X94119998Y-94200000D02*
X94495000Y-94575002D01*
D46*
%TO.N,Net-(Csnub1-Pad2)*%
X100635000Y-71200000D02*
X102450000Y-71200000D01*
X104000000Y-72750000D02*
X104000000Y-69454000D01*
X102450000Y-71200000D02*
X104000000Y-72750000D01*
D45*
%TO.N,Net-(Ct1-Pad1)*%
X99079999Y-101000000D02*
X98305000Y-100225001D01*
X104000000Y-104200000D02*
X104000000Y-103200000D01*
X104000000Y-103200000D02*
X101800000Y-101000000D01*
X101800000Y-101000000D02*
X100400000Y-101000000D01*
X85237500Y-105600000D02*
X88200000Y-105600000D01*
X81037500Y-101400000D02*
X85237500Y-105600000D01*
X88200000Y-105600000D02*
X89600000Y-104200000D01*
X89600000Y-102760551D02*
X88654725Y-101815276D01*
X105800000Y-105397500D02*
X105197500Y-105397500D01*
X105197500Y-105397500D02*
X104000000Y-104200000D01*
X100400000Y-101000000D02*
X99079999Y-101000000D01*
X89600000Y-104200000D02*
X89600000Y-102760551D01*
%TO.N,Net-(Dsec1-Pad2)*%
X154035000Y-69565000D02*
X154035000Y-68875000D01*
%TO.N,Net-(M1-Pad1)*%
X88800000Y-94402500D02*
X88800000Y-94350000D01*
X88800000Y-94350000D02*
X92950000Y-90200000D01*
%TO.N,Net-(M1-Pad4)*%
X97000000Y-89400000D02*
X97000000Y-87195000D01*
X97000000Y-87195000D02*
X96905000Y-87100000D01*
%TO.N,Net-(Daux1-Pad1)*%
X101800000Y-90402500D02*
X101800000Y-84300000D01*
%TO.N,Net-(Dz1-Pad1)*%
X151950000Y-105650000D02*
X151950000Y-108712500D01*
X150950000Y-102100000D02*
X150950000Y-104650000D01*
X151950000Y-108712500D02*
X150500000Y-110162500D01*
X150950000Y-104650000D02*
X151950000Y-105650000D01*
%TO.N,Net-(O1-Pad1)*%
X122600000Y-105470000D02*
X122600000Y-108500000D01*
X122600000Y-108500000D02*
X123897500Y-109797500D01*
X123897500Y-109797500D02*
X126700000Y-109797500D01*
%TO.N,Net-(Rdrv1-Pad1)*%
X97000000Y-91400000D02*
X97000000Y-94540002D01*
X97000000Y-94540002D02*
X97035000Y-94575002D01*
%TO.N,Net-(O1-Pad3)*%
X100600000Y-103407500D02*
X100592500Y-103400000D01*
X103000000Y-104000000D02*
X103000000Y-106200000D01*
X103800000Y-107000000D02*
X117600000Y-107000000D01*
X118100000Y-104200000D02*
X118600000Y-104700000D01*
X103000000Y-106200000D02*
X103800000Y-107000000D01*
X102400000Y-103400000D02*
X103000000Y-104000000D01*
X118600000Y-104700000D02*
X118600000Y-106000000D01*
X117600000Y-107000000D02*
X118600000Y-106000000D01*
X100592500Y-103400000D02*
X102400000Y-103400000D01*
X116225000Y-104200000D02*
X118100000Y-104200000D01*
X100600000Y-105200000D02*
X100600000Y-103407500D01*
%TO.N,Net-(Q1-Pad2)*%
X139700000Y-111600000D02*
X139700000Y-110202500D01*
X130897500Y-108602500D02*
X130900000Y-108600000D01*
X147950000Y-110200000D02*
X139697500Y-110200000D01*
X147987500Y-110162500D02*
X147950000Y-110200000D01*
X139500000Y-111800000D02*
X139700000Y-111600000D01*
X126700000Y-108602500D02*
X130897500Y-108602500D01*
X139700000Y-110202500D02*
X139697500Y-110200000D01*
X134100000Y-111800000D02*
X139500000Y-111800000D01*
X130900000Y-108600000D02*
X134100000Y-111800000D01*
X148600000Y-110162500D02*
X147987500Y-110162500D01*
D52*
%TO.N,Net-(Daux1-Pad2)*%
X107200000Y-84600000D02*
X102600000Y-80000000D01*
X102600000Y-80000000D02*
X102500000Y-80000000D01*
D46*
X101800000Y-79400000D02*
X101800000Y-79300000D01*
%TO.N,Net-(Dsnub1-Pad2)*%
X104000000Y-74850000D02*
X106950000Y-74850000D01*
X95000000Y-83150000D02*
X95000000Y-79600000D01*
X99750000Y-74850000D02*
X104000000Y-74850000D01*
X95000000Y-79600000D02*
X99750000Y-74850000D01*
X106950000Y-74850000D02*
X107200000Y-74600000D01*
X107200000Y-79600000D02*
X107200000Y-74600000D01*
D45*
%TO.N,Net-(Rstartup1-Pad2)*%
X80200000Y-84950000D02*
X80200000Y-88050000D01*
%TO.N,Net-(Qsc1-Pad3)*%
X87384725Y-100545276D02*
X91132501Y-96797500D01*
X91132501Y-96797500D02*
X91200000Y-96797500D01*
%TD*%
%TA.AperFunction,Conductor*%
%TO.N,VDC*%
G36*
X97942121Y-58020002D02*
G01*
X97988614Y-58073658D01*
X98000000Y-58126000D01*
X98000000Y-66479553D01*
X97993534Y-66519398D01*
X93528718Y-79913845D01*
X93488201Y-79972145D01*
X93422596Y-79999284D01*
X93409184Y-80000000D01*
X82000000Y-80000000D01*
X81999648Y-80012656D01*
X81999648Y-80012658D01*
X81903403Y-83477499D01*
X81881518Y-83545038D01*
X81826592Y-83590023D01*
X81777452Y-83600000D01*
X78926000Y-83600000D01*
X78857879Y-83579998D01*
X78811386Y-83526342D01*
X78800000Y-83474000D01*
X78800000Y-82800000D01*
X68324988Y-82800000D01*
X68256867Y-82779998D01*
X68210374Y-82726342D01*
X68198992Y-82675016D01*
X68177419Y-80000000D01*
X68001024Y-58127015D01*
X68020476Y-58058736D01*
X68073755Y-58011812D01*
X68127020Y-58000000D01*
X97874000Y-58000000D01*
X97942121Y-58020002D01*
G37*
%TD.AperFunction*%
%TD*%
%TA.AperFunction,Conductor*%
%TO.N,Net-(Dsec1-Pad2)*%
G36*
X155442121Y-65000002D02*
G01*
X155488614Y-65053658D01*
X155500000Y-65106000D01*
X155500000Y-71874000D01*
X155479998Y-71942121D01*
X155426342Y-71988614D01*
X155374000Y-72000000D01*
X151800000Y-72000000D01*
X151793868Y-72007326D01*
X148037772Y-76494872D01*
X147978711Y-76534272D01*
X147941151Y-76540000D01*
X145196000Y-76540000D01*
X145127879Y-76519998D01*
X145081386Y-76466342D01*
X145070000Y-76414000D01*
X145070000Y-67636000D01*
X145090002Y-67567879D01*
X145143658Y-67521386D01*
X145196000Y-67510000D01*
X148000000Y-67510000D01*
X150493095Y-65016905D01*
X150555407Y-64982879D01*
X150582190Y-64980000D01*
X155374000Y-64980000D01*
X155442121Y-65000002D01*
G37*
%TD.AperFunction*%
%TD*%
%TA.AperFunction,Conductor*%
%TO.N,Net-(M1-Pad1)*%
G36*
X96342121Y-85920002D02*
G01*
X96388614Y-85973658D01*
X96400000Y-86026000D01*
X96400000Y-87032065D01*
X96399594Y-87042167D01*
X96398934Y-87050372D01*
X96396954Y-87059124D01*
X96397510Y-87068081D01*
X96399758Y-87104316D01*
X96400000Y-87112119D01*
X96400000Y-88314694D01*
X96379998Y-88382815D01*
X96320795Y-88431682D01*
X95400000Y-88800000D01*
X95000000Y-90000000D01*
X95000000Y-90874000D01*
X94979998Y-90942121D01*
X94926342Y-90988614D01*
X94874000Y-91000000D01*
X92126000Y-91000000D01*
X92057879Y-90979998D01*
X92011386Y-90926342D01*
X92000000Y-90874000D01*
X92000000Y-86026000D01*
X92020002Y-85957879D01*
X92073658Y-85911386D01*
X92126000Y-85900000D01*
X96274000Y-85900000D01*
X96342121Y-85920002D01*
G37*
%TD.AperFunction*%
%TD*%
%TA.AperFunction,Conductor*%
%TO.N,Vout*%
G36*
X165042121Y-59020002D02*
G01*
X165088614Y-59073658D01*
X165100000Y-59126000D01*
X165100000Y-87374000D01*
X165079998Y-87442121D01*
X165026342Y-87488614D01*
X164974000Y-87500000D01*
X152126000Y-87500000D01*
X152057879Y-87479998D01*
X152011386Y-87426342D01*
X152000000Y-87374000D01*
X152000000Y-73626000D01*
X152020002Y-73557879D01*
X152073658Y-73511386D01*
X152126000Y-73500000D01*
X156700000Y-73500000D01*
X156700000Y-67154512D01*
X156720002Y-67086391D01*
X156739731Y-67062677D01*
X156963667Y-66852313D01*
X160000000Y-64000000D01*
X160000000Y-59126000D01*
X160020002Y-59057879D01*
X160073658Y-59011386D01*
X160126000Y-59000000D01*
X164974000Y-59000000D01*
X165042121Y-59020002D01*
G37*
%TD.AperFunction*%
%TD*%
M02*
