%TF.GenerationSoftware,KiCad,Pcbnew,(6.0.9)*%
%TF.CreationDate,2023-06-16T09:03:50+03:00*%
%TF.ProjectId,pcb-design,7063622d-6465-4736-9967-6e2e6b696361,rev?*%
%TF.SameCoordinates,Original*%
%TF.FileFunction,Legend,Bot*%
%TF.FilePolarity,Positive*%
%FSLAX46Y46*%
G04 Gerber Fmt 4.6, Leading zero omitted, Abs format (unit mm)*
G04 Created by KiCad (PCBNEW (6.0.9)) date 2023-06-16 09:03:50*
%MOMM*%
%LPD*%
G01*
G04 APERTURE LIST*
%ADD10C,0.150000*%
G04 APERTURE END LIST*
D10*
X165190476Y-101404761D02*
X165047619Y-101452380D01*
X164809523Y-101452380D01*
X164714285Y-101404761D01*
X164666666Y-101357142D01*
X164619047Y-101261904D01*
X164619047Y-101166666D01*
X164666666Y-101071428D01*
X164714285Y-101023809D01*
X164809523Y-100976190D01*
X165000000Y-100928571D01*
X165095238Y-100880952D01*
X165142857Y-100833333D01*
X165190476Y-100738095D01*
X165190476Y-100642857D01*
X165142857Y-100547619D01*
X165095238Y-100500000D01*
X165000000Y-100452380D01*
X164761904Y-100452380D01*
X164619047Y-100500000D01*
X164428571Y-101547619D02*
X163666666Y-101547619D01*
X162904761Y-100500000D02*
X163000000Y-100452380D01*
X163142857Y-100452380D01*
X163285714Y-100500000D01*
X163380952Y-100595238D01*
X163428571Y-100690476D01*
X163476190Y-100880952D01*
X163476190Y-101023809D01*
X163428571Y-101214285D01*
X163380952Y-101309523D01*
X163285714Y-101404761D01*
X163142857Y-101452380D01*
X163047619Y-101452380D01*
X162904761Y-101404761D01*
X162857142Y-101357142D01*
X162857142Y-101023809D01*
X163047619Y-101023809D01*
X162428571Y-101452380D02*
X162428571Y-100452380D01*
X161857142Y-101452380D01*
X161857142Y-100452380D01*
X161380952Y-101452380D02*
X161380952Y-100452380D01*
X161142857Y-100452380D01*
X161000000Y-100500000D01*
X160904761Y-100595238D01*
X160857142Y-100690476D01*
X160809523Y-100880952D01*
X160809523Y-101023809D01*
X160857142Y-101214285D01*
X160904761Y-101309523D01*
X161000000Y-101404761D01*
X161142857Y-101452380D01*
X161380952Y-101452380D01*
X99166666Y-112452380D02*
X99166666Y-111452380D01*
X98785714Y-111452380D01*
X98690476Y-111500000D01*
X98642857Y-111547619D01*
X98595238Y-111642857D01*
X98595238Y-111785714D01*
X98642857Y-111880952D01*
X98690476Y-111928571D01*
X98785714Y-111976190D01*
X99166666Y-111976190D01*
X98404761Y-112547619D02*
X97642857Y-112547619D01*
X96880952Y-111500000D02*
X96976190Y-111452380D01*
X97119047Y-111452380D01*
X97261904Y-111500000D01*
X97357142Y-111595238D01*
X97404761Y-111690476D01*
X97452380Y-111880952D01*
X97452380Y-112023809D01*
X97404761Y-112214285D01*
X97357142Y-112309523D01*
X97261904Y-112404761D01*
X97119047Y-112452380D01*
X97023809Y-112452380D01*
X96880952Y-112404761D01*
X96833333Y-112357142D01*
X96833333Y-112023809D01*
X97023809Y-112023809D01*
X96404761Y-112452380D02*
X96404761Y-111452380D01*
X95833333Y-112452380D01*
X95833333Y-111452380D01*
X95357142Y-112452380D02*
X95357142Y-111452380D01*
X95119047Y-111452380D01*
X94976190Y-111500000D01*
X94880952Y-111595238D01*
X94833333Y-111690476D01*
X94785714Y-111880952D01*
X94785714Y-112023809D01*
X94833333Y-112214285D01*
X94880952Y-112309523D01*
X94976190Y-112404761D01*
X95119047Y-112452380D01*
X95357142Y-112452380D01*
M02*
