%TF.GenerationSoftware,KiCad,Pcbnew,(6.0.9)*%
%TF.CreationDate,2023-06-16T09:03:50+03:00*%
%TF.ProjectId,pcb-design,7063622d-6465-4736-9967-6e2e6b696361,rev?*%
%TF.SameCoordinates,Original*%
%TF.FileFunction,Soldermask,Top*%
%TF.FilePolarity,Negative*%
%FSLAX46Y46*%
G04 Gerber Fmt 4.6, Leading zero omitted, Abs format (unit mm)*
G04 Created by KiCad (PCBNEW (6.0.9)) date 2023-06-16 09:03:50*
%MOMM*%
%LPD*%
G01*
G04 APERTURE LIST*
G04 Aperture macros list*
%AMRoundRect*
0 Rectangle with rounded corners*
0 $1 Rounding radius*
0 $2 $3 $4 $5 $6 $7 $8 $9 X,Y pos of 4 corners*
0 Add a 4 corners polygon primitive as box body*
4,1,4,$2,$3,$4,$5,$6,$7,$8,$9,$2,$3,0*
0 Add four circle primitives for the rounded corners*
1,1,$1+$1,$2,$3*
1,1,$1+$1,$4,$5*
1,1,$1+$1,$6,$7*
1,1,$1+$1,$8,$9*
0 Add four rect primitives between the rounded corners*
20,1,$1+$1,$2,$3,$4,$5,0*
20,1,$1+$1,$4,$5,$6,$7,0*
20,1,$1+$1,$6,$7,$8,$9,0*
20,1,$1+$1,$8,$9,$2,$3,0*%
%AMFreePoly0*
4,1,17,2.675000,1.605000,1.875000,1.605000,1.875000,0.935000,2.675000,0.935000,2.675000,0.335000,1.875000,0.335000,1.875000,-0.335000,2.675000,-0.335000,2.675000,-0.935000,1.875000,-0.935000,1.875000,-1.605000,2.675000,-1.605000,2.675000,-2.205000,-1.875000,-2.205000,-1.875000,2.205000,2.675000,2.205000,2.675000,1.605000,2.675000,1.605000,$1*%
G04 Aperture macros list end*
%ADD10C,0.150000*%
%ADD11RoundRect,0.160000X-0.197500X-0.160000X0.197500X-0.160000X0.197500X0.160000X-0.197500X0.160000X0*%
%ADD12R,1.800000X3.500000*%
%ADD13RoundRect,0.160000X0.160000X-0.197500X0.160000X0.197500X-0.160000X0.197500X-0.160000X-0.197500X0*%
%ADD14R,0.450000X0.600000*%
%ADD15RoundRect,0.250000X0.337500X0.475000X-0.337500X0.475000X-0.337500X-0.475000X0.337500X-0.475000X0*%
%ADD16RoundRect,0.250000X-0.550000X1.050000X-0.550000X-1.050000X0.550000X-1.050000X0.550000X1.050000X0*%
%ADD17C,2.400000*%
%ADD18O,2.400000X2.400000*%
%ADD19RoundRect,0.250000X-0.625000X0.400000X-0.625000X-0.400000X0.625000X-0.400000X0.625000X0.400000X0*%
%ADD20RoundRect,0.250000X-0.475000X0.337500X-0.475000X-0.337500X0.475000X-0.337500X0.475000X0.337500X0*%
%ADD21RoundRect,0.250000X-0.400000X-0.625000X0.400000X-0.625000X0.400000X0.625000X-0.400000X0.625000X0*%
%ADD22C,1.600000*%
%ADD23RoundRect,0.250000X-0.450000X0.350000X-0.450000X-0.350000X0.450000X-0.350000X0.450000X0.350000X0*%
%ADD24O,0.650001X1.649999*%
%ADD25R,1.100000X1.100000*%
%ADD26RoundRect,0.150000X-0.150000X0.587500X-0.150000X-0.587500X0.150000X-0.587500X0.150000X0.587500X0*%
%ADD27C,3.200000*%
%ADD28C,2.000000*%
%ADD29RoundRect,0.150000X-0.150000X0.512500X-0.150000X-0.512500X0.150000X-0.512500X0.150000X0.512500X0*%
%ADD30RoundRect,0.250000X0.475000X-0.337500X0.475000X0.337500X-0.475000X0.337500X-0.475000X-0.337500X0*%
%ADD31RoundRect,0.250000X2.125000X1.000000X-2.125000X1.000000X-2.125000X-1.000000X2.125000X-1.000000X0*%
%ADD32RoundRect,0.250000X1.950000X1.000000X-1.950000X1.000000X-1.950000X-1.000000X1.950000X-1.000000X0*%
%ADD33O,1.200000X1.600000*%
%ADD34O,1.200000X1.200000*%
%ADD35R,10.800000X9.400000*%
%ADD36R,1.100000X4.600000*%
%ADD37R,0.900000X1.200000*%
%ADD38RoundRect,0.155000X0.155000X-0.212500X0.155000X0.212500X-0.155000X0.212500X-0.155000X-0.212500X0*%
%ADD39RoundRect,0.250000X0.450000X-0.350000X0.450000X0.350000X-0.450000X0.350000X-0.450000X-0.350000X0*%
%ADD40RoundRect,0.150000X0.662500X0.150000X-0.662500X0.150000X-0.662500X-0.150000X0.662500X-0.150000X0*%
%ADD41RoundRect,0.155000X-0.155000X0.212500X-0.155000X-0.212500X0.155000X-0.212500X0.155000X0.212500X0*%
%ADD42RoundRect,0.250000X-0.650000X0.412500X-0.650000X-0.412500X0.650000X-0.412500X0.650000X0.412500X0*%
%ADD43FreePoly0,90.000000*%
%ADD44R,0.500000X0.850000*%
%ADD45RoundRect,0.249999X0.450001X1.075001X-0.450001X1.075001X-0.450001X-1.075001X0.450001X-1.075001X0*%
G04 APERTURE END LIST*
D10*
X165100000Y-64000000D02*
X160100000Y-64000000D01*
X160100000Y-64000000D02*
X160100000Y-59000000D01*
X160100000Y-59000000D02*
X165100000Y-59000000D01*
X165100000Y-59000000D02*
X165100000Y-64000000D01*
G36*
X165100000Y-64000000D02*
G01*
X160100000Y-64000000D01*
X160100000Y-59000000D01*
X165100000Y-59000000D01*
X165100000Y-64000000D01*
G37*
X68700000Y-77400000D02*
X74100000Y-77400000D01*
X74100000Y-77400000D02*
X74100000Y-82800000D01*
X74100000Y-82800000D02*
X68700000Y-82800000D01*
X68700000Y-82800000D02*
X68700000Y-77400000D01*
G36*
X68700000Y-77400000D02*
G01*
X74100000Y-77400000D01*
X74100000Y-82800000D01*
X68700000Y-82800000D01*
X68700000Y-77400000D01*
G37*
D11*
%TO.C,R13*%
X99397500Y-103400000D03*
X100592500Y-103400000D03*
%TD*%
D12*
%TO.C,Daux1*%
X101800000Y-84300000D03*
X101800000Y-79300000D03*
%TD*%
D13*
%TO.C,Rcs1*%
X88800000Y-95597500D03*
X88800000Y-94402500D03*
%TD*%
%TO.C,Rt1*%
X105800000Y-105397500D03*
X105800000Y-104202500D03*
%TD*%
D14*
%TO.C,Dsnub1*%
X104000000Y-72750000D03*
X104000000Y-74850000D03*
%TD*%
D11*
%TO.C,R21*%
X138502500Y-110200000D03*
X139697500Y-110200000D03*
%TD*%
D15*
%TO.C,Cref1*%
X103437500Y-98200000D03*
X101362500Y-98200000D03*
%TD*%
D16*
%TO.C,Cvcc1*%
X75200000Y-93600000D03*
X75200000Y-97200000D03*
%TD*%
D13*
%TO.C,Rled1*%
X126700000Y-109797500D03*
X126700000Y-108602500D03*
%TD*%
D17*
%TO.C,Rsnub1*%
X70155000Y-60800000D03*
D18*
X100635000Y-60800000D03*
%TD*%
D19*
%TO.C,Rstartup1*%
X80200000Y-81850000D03*
X80200000Y-84950000D03*
%TD*%
D20*
%TO.C,C23*%
X128100000Y-101725000D03*
X128100000Y-103800000D03*
%TD*%
D21*
%TO.C,Rsns1*%
X89850000Y-90200000D03*
X92950000Y-90200000D03*
%TD*%
D22*
%TO.C,C21*%
X145250000Y-107000000D03*
X145250000Y-103500000D03*
%TD*%
D23*
%TO.C,Rbias1*%
X130900000Y-106600000D03*
X130900000Y-108600000D03*
%TD*%
D24*
%TO.C,U1*%
X94495000Y-100225001D03*
X95765000Y-100225001D03*
X97035000Y-100225001D03*
X98305000Y-100225001D03*
X98305000Y-94575002D03*
X97035000Y-94575002D03*
X95765000Y-94575002D03*
X94495000Y-94575002D03*
%TD*%
D25*
%TO.C,D21*%
X138500000Y-105600000D03*
X135700000Y-105600000D03*
%TD*%
D26*
%TO.C,Q1*%
X150500000Y-110162500D03*
X148600000Y-110162500D03*
X149550000Y-112037500D03*
%TD*%
D13*
%TO.C,R11*%
X94400000Y-104397500D03*
X94400000Y-103202500D03*
%TD*%
D27*
%TO.C,H2*%
X71000000Y-52000000D03*
%TD*%
D28*
%TO.C,T1*%
X107200000Y-64600000D03*
X107200000Y-69600000D03*
X107200000Y-74600000D03*
X107200000Y-79600000D03*
X107200000Y-84600000D03*
X107200000Y-89600000D03*
X107200000Y-94600000D03*
X146700000Y-64600000D03*
X146700000Y-69600000D03*
X146700000Y-74600000D03*
X146700000Y-79600000D03*
X146700000Y-84600000D03*
X146700000Y-89600000D03*
X146700000Y-94600000D03*
%TD*%
D29*
%TO.C,VR1*%
X138050000Y-98462500D03*
X137100000Y-98462500D03*
X136150000Y-98462500D03*
X136150000Y-100737500D03*
X138050000Y-100737500D03*
%TD*%
D17*
%TO.C,Rsnub2*%
X70155000Y-71200000D03*
D18*
X100635000Y-71200000D03*
%TD*%
D27*
%TO.C,H4*%
X162000000Y-52000000D03*
%TD*%
D30*
%TO.C,C12*%
X75200000Y-89637500D03*
X75200000Y-87562500D03*
%TD*%
D20*
%TO.C,C22*%
X131500000Y-98362500D03*
X131500000Y-100437500D03*
%TD*%
D31*
%TO.C,Cout1*%
X162875000Y-92200000D03*
D32*
X153750000Y-92200000D03*
%TD*%
D27*
%TO.C,H3*%
X82900000Y-110000000D03*
%TD*%
D13*
%TO.C,R22*%
X126100000Y-99197500D03*
X126100000Y-98002500D03*
%TD*%
%TO.C,Raux1*%
X101800000Y-91597500D03*
X101800000Y-90402500D03*
%TD*%
D33*
%TO.C,Qsc1*%
X87384725Y-103085276D03*
D34*
X88654725Y-101815276D03*
X87384725Y-100545276D03*
%TD*%
D35*
%TO.C,Dsec1*%
X156575000Y-78025000D03*
D36*
X159115000Y-68875000D03*
X154035000Y-68875000D03*
%TD*%
D15*
%TO.C,Ct1*%
X81037500Y-101400000D03*
X78962500Y-101400000D03*
%TD*%
D11*
%TO.C,Rfbt1*%
X149405000Y-95600000D03*
X150600000Y-95600000D03*
%TD*%
D37*
%TO.C,Dz1*%
X150950000Y-102100000D03*
X154250000Y-102100000D03*
%TD*%
D11*
%TO.C,R12*%
X99405000Y-105200000D03*
X100600000Y-105200000D03*
%TD*%
D38*
%TO.C,C13*%
X96200000Y-104367500D03*
X96200000Y-103232500D03*
%TD*%
D39*
%TO.C,Rdrv1*%
X97000000Y-91400000D03*
X97000000Y-89400000D03*
%TD*%
D40*
%TO.C,O1*%
X122600000Y-105470000D03*
X122600000Y-104200000D03*
X116225000Y-104200000D03*
X116225000Y-105470000D03*
%TD*%
D27*
%TO.C,H1*%
X162000000Y-110000000D03*
%TD*%
D41*
%TO.C,Csnub1*%
X104000000Y-68232500D03*
X104000000Y-69367500D03*
%TD*%
D13*
%TO.C,Rfbb1*%
X148400000Y-98600000D03*
X148400000Y-97405000D03*
%TD*%
D19*
%TO.C,Rstartup2*%
X80200000Y-88050000D03*
X80200000Y-91150000D03*
%TD*%
D42*
%TO.C,Cin1*%
X87200000Y-78675000D03*
X87200000Y-81800000D03*
%TD*%
D30*
%TO.C,Ccs1*%
X84400000Y-96475000D03*
X84400000Y-94400000D03*
%TD*%
D43*
%TO.C,M1*%
X95000000Y-83550000D03*
D44*
X93095000Y-87100000D03*
X94365000Y-87100000D03*
X95635000Y-87100000D03*
X96905000Y-87100000D03*
%TD*%
D45*
%TO.C,Rz1*%
X156750000Y-105650000D03*
X151950000Y-105650000D03*
%TD*%
D13*
%TO.C,Rsc1*%
X91200000Y-96797500D03*
X91200000Y-95602500D03*
%TD*%
M02*
